<svg xmlns="http://www.w3.org/2000/svg" xmlns:xlink="http://www.w3.org/1999/xlink" viewBox="0 0 785.361 441.647"><defs><style>.a,.b,.j{fill:#faa41a;}.a,.n,.r{opacity:0.1;}.c{fill:#444053;}.d{fill:#fff;}.e{fill:#3f3d56;}.f{fill:#fa5959;}.f,.g,.h{opacity:0.8;}.g{fill:#fed253;}.h{fill:#8ccf4d;}.i,.j{opacity:0.2;}.k{fill:url(#a);}.l{fill:#65617d;}.m,.u{opacity:0.05;}.o{fill:#ee8e9e;}.p{fill:#e3e8f4;}.q{fill:#565387;}.s{fill:url(#b);}.t{fill:#2d293d;}.v{fill:#ffcdd3;}.w{fill:#dce6f2;}.x{fill:#575988;}.y{fill:#656691;}.z{fill:url(#c);}.aa{fill:#4c4981;}.ab{fill:#ae6e79;}</style><linearGradient id="a" x1="0.5" y1="1" x2="0.5" gradientUnits="objectBoundingBox"><stop offset="0" stop-color="gray" stop-opacity="0.251"/><stop offset="0.54" stop-color="gray" stop-opacity="0.122"/><stop offset="1" stop-color="gray" stop-opacity="0.102"/></linearGradient><linearGradient id="b" x1="-4.28" y1="0.935" x2="-4.28" y2="-0.076" xlink:href="#a"/><linearGradient id="c" x1="0.5" y1="1" x2="0.5" y2="0" xlink:href="#a"/></defs><g transform="translate(0.02)"><path class="a" d="M496.882,238c-49.319.376-96.694-10.769-142-23.189s-90.24-26.367-138.59-32.062c-31.1-3.68-66.493-3.1-90.944,11.152-23.523,13.7-30.479,36.16-33.916,56.889-2.586,15.6-3.847,31.964,5.255,46.162,6.322,9.849,17.209,17.934,24.869,27.315,26.667,32.647,10.134,74.655-16.31,108.389-12.386,15.8-26.883,31.009-36.32,47.737s-13.368,35.623-4.036,52c9.256,16.233,30.347,27.922,53.027,35.86,46.071,16.128,99.788,19.307,152.1,20.331,115.8,2.258,231.9-4.628,347.674-11.507,42.851-2.544,85.89-5.109,127.884-11.953,23.321-3.8,47.347-9.361,63.949-21.328,21.077-15.194,25.566-39.812,10.455-57.39-25.35-29.476-92.7-34.627-110.822-66.584-9.974-17.592-1.094-37.9,11.849-55,27.838-36.7,75.512-69.7,76.634-110.564.774-28.054-23.7-55.258-60.415-67.211-38.5-12.546-91.153-8.915-118.377,15.069C590.865,226.768,540.444,237.676,496.882,238Z" transform="translate(-43.564 -147.373)"/><path class="b" d="M958.155,682.792s-8.566-5.653-17.055-1.638c0,0,2.614,5.039,13.361,4.558Z" transform="translate(-310.677 -298.798)"/><path class="b" d="M964.61,684.56s2.607,9.925-3.924,16.679c0,0-3.931-4.091-.035-14.114Z" transform="translate(-316.079 -300.266)"/><path class="b" d="M973.847,668.189s-.634-8.441-19.7-5.646c0,0-.084,5.451,6.607,8.029S970.508,670.977,973.847,668.189Z" transform="translate(-314.631 -293.423)"/><path class="b" d="M981.66,670.81s8.057,2.586.871,20.464c0,0-5.311-1.185-6.273-8.3S978.168,673.4,981.66,670.81Z" transform="translate(-321.273 -296.1)"/><path class="b" d="M991.564,648.157s1.094-13.891-18.387-12.462c0,0-1.394,12.546,14.951,15.808Z" transform="translate(-320.387 -285.429)"/><path class="b" d="M1008.376,625.945s-2.669-15.745-22.136-11.054c0,0-.077,13.612,18.958,14.8Z" transform="translate(-324.354 -278.892)"/><path class="b" d="M1021.208,602.825s-4.475-15.334-23.767-10.748c0,0,4.593,13.794,22.485,13.577Z" transform="translate(-327.748 -271.984)"/><path class="b" d="M1034.361,579.916s-4.37-15.912-23-11.152c0,0,6.217,15.118,21.767,13.849Z" transform="translate(-331.966 -264.91)"/><path class="b" d="M1043.619,556.712s-3.36-19.46-20.729-15.153c0,0,5.039,17.7,19.446,17.982Z" transform="translate(-335.46 -256.747)"/><path class="b" d="M1050.977,530.991s-4.029-19.62-21.607-13.94c0,0,6.893,18.54,20.366,16.623Z" transform="translate(-337.423 -249.197)"/><path class="b" d="M1056.48,504.929s-6.405-19.613-19.99-19.084c0,0,6.552,20.722,18.819,23Z" transform="translate(-339.58 -240.051)"/><path class="b" d="M1060.381,480.042s-6.97-23.614-18.031-21.795c0,0,4.83,18.052,17.634,25.475Z" transform="translate(-341.356 -231.661)"/><path class="b" d="M1062.425,452.384s-6.531-19.676-17.425-20.464c0,0,4.44,19.362,17.2,25.573Z" transform="translate(-342.159 -223.714)"/><path class="b" d="M1065.174,426.243s-8.148-19.7-15.334-20.143c0,0,3.541,19.4,14.637,23.377Z" transform="translate(-343.626 -215.891)"/><path class="b" d="M1067.831,400.358s-5-21.4-12.211-23.168c0,0,.983,17.5,11.486,24.771Z" transform="translate(-345.377 -207.131)"/><path class="b" d="M1072.173,369.8s-5.269-17.048-11.1-19.648c0,0,1.157,20.1,9.758,23.823Z" transform="translate(-347.028 -198.938)"/><path class="b" d="M1078.357,344.2l1.066-30.068s-10.887,22.694-1.868,35.372Z" transform="translate(-350.94 -188.023)"/><path class="b" d="M1090.505,304.322s7.848-21.955,9.758-23.182c0,0-15.4,14.247-13.9,32.57Z" transform="translate(-354.661 -178.027)"/><path class="b" d="M998.967,653.461s13.814-1.812,13.4,17.718c0,0-12.483,2.028-16.553-14.114Z" transform="translate(-327.254 -290.83)"/><path class="b" d="M1017.615,630.37s15.968-.049,14.637,19.934c0,0-13.4,2.391-17.822-16.156Z" transform="translate(-332.896 -283.846)"/><path class="b" d="M1031.206,609.157s14.49-6.8,23.767,10.748c0,0-13.389,5.66-25.043-7.911Z" transform="translate(-337.593 -277.026)"/><path class="b" d="M1044.29,584.7s14.839-7.228,23.551,9.9c0,0-15.452,5.325-24.771-7.193Z" transform="translate(-341.574 -269.55)"/><path class="b" d="M1052.065,561.563s14.281-13.647,25.684.153c0,0-14.595,11.222-26.339,2.886Z" transform="translate(-344.101 -261.173)"/><path class="b" d="M1058.989,534.217s14.372-13.94,25.677.641c0,0-16.128,11.452-26.186,2.286Z" transform="translate(-346.244 -252.89)"/><path class="b" d="M1063.07,506.3s11.068-17.425,24.095-13.529c0,0-11.479,18.449-23.976,17.627Z" transform="translate(-347.634 -241.981)"/><path class="b" d="M1067.626,481.327s11.152-21.948,21.7-18.122c0,0-8.036,16.867-21.983,21.823Z" transform="translate(-348.928 -233.058)"/><path class="b" d="M1068.368,453s11.466-17.271,22.206-15.167c0,0-9.375,17.515-23.314,20.164Z" transform="translate(-348.904 -225.452)"/><path class="b" d="M1070.1,425.906s8.887-19.376,16.115-19.516c0,0-4.273,19.244-15.515,22.806Z" transform="translate(-349.764 -215.979)"/><path class="b" d="M1072.63,401.279s9.876-19.634,17.3-19.669c0,0-5.053,16.784-16.972,21.391Z" transform="translate(-350.531 -208.47)"/><path class="b" d="M1074.76,372.21s7.388-16.24,13.508-18.08c0,0-3.694,19.795-12.692,22.387Z" transform="translate(-351.177 -200.143)"/><path class="b" d="M1080.475,345.518l16.512-25.148s-4.231,24.813-18.916,29.971Z" transform="translate(-352.179 -189.914)"/><path class="b" d="M1094.3,310.61s19.2-13.243,19.885-15.39c0,0-9.758,18.554-27.88,21.83Z" transform="translate(-354.676 -182.293)"/><path class="b" d="M1099.2,299.554s22.032-21.175,27.657-21.154c0,0-18.171.829-28.186,20.032Z" transform="translate(-358.421 -177.197)"/><path class="c" d="M1075.07,360.848l.8.1c4.14-32.41,10.176-51.577,17-53.926l-.265-.767C1085.372,308.769,1079.308,327.644,1075.07,360.848Z" transform="translate(-351.27 -185.639)"/><path class="c" d="M1066.34,461.019l1.213.1c.251-3.025.446-6.127.578-9.207,1.157-26.82,2.948-51.452,5.311-69.915l-.7-.871c-2.363,18.5-4.663,43.876-5.82,70.738C1066.8,454.921,1066.591,458.015,1066.34,461.019Z" transform="translate(-348.625 -208.325)"/><path class="c" d="M932.828,641.453c.216-.091,21.565-9.625,43.722-32.368a175.934,175.934,0,0,0,31.957-45.3c10.239-20.861,16.484-46.5,18.582-71.4l-1.268.592c-4.7,55.9-30.152,94.094-50.386,114.9-21.941,22.534-43.046,31.971-43.255,32.062Z" transform="translate(-307.974 -242.034)"/><path class="d" d="M773.186,154.939V516.274c0,10.741-10.364,19.516-23.161,19.516H259.781c-12.8,0-23.161-8.74-23.161-19.516V154.939c0-10.762,10.364-21.739,23.161-21.739L750,134.392C762.793,134.392,773.186,144.212,773.186,154.939Z" transform="translate(-97.214 -133.2)"/><path class="e" d="M773.186,155.051v16.728H236.62V155.051A21.851,21.851,0,0,1,258.492,133.2h492.85a21.851,21.851,0,0,1,21.844,21.851Z" transform="translate(-97.214 -133.2)"/><circle class="f" cx="7.723" cy="7.723" r="7.723" transform="translate(157.681 11.563)"/><circle class="g" cx="7.723" cy="7.723" r="7.723" transform="translate(180.146 11.563)"/><circle class="h" cx="7.723" cy="7.723" r="7.723" transform="translate(202.61 11.563)"/><g class="i" transform="translate(342.691 129.94)"><path class="b" d="M641,321.979V361.01c0,1.164-2.182,2.091-4.879,2.091H533.159c-2.69,0-4.879-.941-4.879-2.091V321.979c0-1.164,2.175-2.349,4.879-2.349h102.96C638.823,319.623,641,320.808,641,321.979Z" transform="translate(-528.28 -319.63)"/></g><rect class="b" width="53.641" height="1.896" transform="translate(392.171 143.873)"/><path class="j" d="M554.8,333.66a12.72,12.72,0,0,0-7.012,23.328v-.843a2.893,2.893,0,0,1,2.544-2.865,5.046,5.046,0,0,0,8.852,0,2.892,2.892,0,0,1,2.544,2.865v.9A12.72,12.72,0,0,0,554.8,333.66Zm4.99,16.128a5.039,5.039,0,0,1-10.057,0,5.52,5.52,0,0,1,2.892-7.4,1.714,1.714,0,0,1-.272-.913,1.68,1.68,0,0,1,1.687-1.68h.119a1.68,1.68,0,0,0-1.561,1.673,1.7,1.7,0,0,0,.223.836h.049a1.812,1.812,0,0,1,0-.335,1.638,1.638,0,0,1,.321-.976,1.673,1.673,0,0,1,1.6-1.185h.118a1.666,1.666,0,0,0-1.282.753,1.631,1.631,0,0,1,.927-.279,1.68,1.68,0,0,1,1.68,1.68,1.7,1.7,0,0,1,0,.188,5.527,5.527,0,0,1,4.1,5.339A5.625,5.625,0,0,1,559.793,349.788Z" transform="translate(-189.773 -193.941)"/><rect class="j" width="53.641" height="1.896" transform="translate(392.171 148.487)"/><rect class="j" width="53.641" height="1.896" transform="translate(392.171 153.101)"/><rect class="j" width="53.641" height="1.896" transform="translate(392.171 157.722)"/><g class="i" transform="translate(221.826 206.379)"><path class="b" d="M467.588,431.649V470.68c0,1.157-2.175,2.091-4.879,2.091H359.749c-2.69,0-4.879-.948-4.879-2.091V431.649c0-1.164,2.175-2.349,4.879-2.349H462.723C465.413,429.3,467.588,430.485,467.588,431.649Z" transform="translate(-354.87 -429.3)"/></g><rect class="b" width="53.641" height="1.896" transform="translate(271.298 220.319)"/><path class="j" d="M381.388,443.33a12.72,12.72,0,0,0-7.012,23.335v-.85a2.886,2.886,0,0,1,2.544-2.858,5.046,5.046,0,0,0,8.852,0,2.886,2.886,0,0,1,2.544,2.858v.906a12.72,12.72,0,0,0-6.928-23.391Zm4.983,16.128a5.039,5.039,0,0,1-10.058,0,5.542,5.542,0,0,1,2.894-7.4,1.666,1.666,0,0,1-.266-.906,1.687,1.687,0,0,1,1.68-1.687h.125a1.68,1.68,0,0,0-1.345,2.509h.056a1.686,1.686,0,0,1,0-.328,2.467,2.467,0,0,1,1.924-2.168h.063a1.687,1.687,0,0,0-1.282.753,1.665,1.665,0,0,1,.92-.279,1.687,1.687,0,0,1,1.687,1.687,1.713,1.713,0,0,1,0,.188,5.52,5.52,0,0,1,3.6,7.667Z" transform="translate(-137.224 -227.172)"/><rect class="j" width="53.641" height="1.896" transform="translate(271.298 224.933)"/><rect class="j" width="53.641" height="1.896" transform="translate(271.298 229.547)"/><rect class="j" width="53.641" height="1.896" transform="translate(271.298 234.162)"/><g class="i" transform="translate(194.037 82.601)"><path class="b" d="M427.7,254.059V293.09c0,1.157-2.175,2.091-4.879,2.091H319.879c-2.683,0-4.879-.948-4.879-2.091V254.059c0-1.164,2.182-2.349,4.879-2.349h102.96C425.529,251.71,427.7,252.895,427.7,254.059Z" transform="translate(-315 -251.71)"/></g><rect class="b" width="53.641" height="1.896" transform="translate(243.495 96.54)"/><rect class="j" width="53.641" height="1.896" transform="translate(243.495 101.154)"/><rect class="j" width="53.641" height="1.896" transform="translate(243.495 105.769)"/><rect class="j" width="53.641" height="1.896" transform="translate(243.495 110.383)"/><path class="j" d="M341.493,265.74a12.727,12.727,0,0,0-6.97,23.335v-2.154a2.893,2.893,0,0,1,2.544-2.865,5.046,5.046,0,0,0,8.852,0,2.885,2.885,0,0,1,2.544,2.865v2.2a12.72,12.72,0,0,0-6.97-23.384Zm5.576,15.529a.857.857,0,0,1-.167.216.7.7,0,0,1-.369.125h-.258a5.053,5.053,0,0,1-9.89-1.436,4.978,4.978,0,0,1,.663-2.482l-.056-.034a1.68,1.68,0,0,1,.167-2.335,3.36,3.36,0,0,1,1.045-.383,4.669,4.669,0,0,0,2.649-2.028,5.57,5.57,0,0,1,0,.767,1.122,1.122,0,0,1,1.6-.056,3.208,3.208,0,0,0,.453.516,1.393,1.393,0,0,0,.565.16l1.269.16a2.425,2.425,0,0,1,1.443.523,2.287,2.287,0,0,1,.481.85,12.717,12.717,0,0,1,.829,2.683,4.3,4.3,0,0,1-.383,2.739Z" transform="translate(-125.153 -173.361)"/><g class="i" transform="translate(370.822 267.254)"><path class="b" d="M681.365,518.982v39.032c0,1.164-2.175,2.091-4.879,2.091H573.519c-2.69,0-4.879-.941-4.879-2.091V518.982c0-1.164,2.175-2.342,4.879-2.342H676.5C679.19,516.6,681.365,517.783,681.365,518.982Z" transform="translate(-568.64 -516.639)"/></g><rect class="b" width="53.641" height="1.896" transform="translate(420.301 281.153)"/><rect class="j" width="53.641" height="1.896" transform="translate(420.301 285.767)"/><rect class="j" width="53.641" height="1.896" transform="translate(420.301 290.388)"/><rect class="j" width="53.641" height="1.896" transform="translate(420.301 295.002)"/><path class="j" d="M595.163,530.62a12.72,12.72,0,0,0-7.012,23.328v-2.154a2.892,2.892,0,0,1,2.544-2.858,5.046,5.046,0,0,0,8.852,0,2.886,2.886,0,0,1,2.544,2.858V554a12.72,12.72,0,0,0-6.928-23.384Zm5.576,15.522a.78.78,0,0,1-.167.223.7.7,0,0,1-.369.125h-.265a5.046,5.046,0,1,1-9.221-3.917h-.056a1.68,1.68,0,0,1,.167-2.335,3.359,3.359,0,0,1,1.046-.383,4.663,4.663,0,0,0,2.648-2.021,5.571,5.571,0,0,1,0,.767,1.122,1.122,0,0,1,1.6-.056,2.883,2.883,0,0,0,.453.509,1.331,1.331,0,0,0,.565.167l1.269.16a2.384,2.384,0,0,1,1.443.523,2.286,2.286,0,0,1,.481.85,12.588,12.588,0,0,1,.829,2.683,4.279,4.279,0,0,1-.4,2.7Z" transform="translate(-202.003 -253.621)"/><path class="k" d="M502.083,650.145l-15.292-22.171s-.286-5.492-1.289-6.775-.216-4.133-.216-4.133,1.073-1.568.146-1.715-.146-3.638-.146-3.638l-.07-5.576s.857-5.353.146-6.635a2.091,2.091,0,0,1,.07-2.279s.857-3.067,0-3.854-.648-5.576-.432-9.34-1.5-5.917-1.5-6.489-5.646-6.127-5.646-6.628-3.576-2.565-5.722-3.136-3.213-1-3.143-1.282-3.359-1.394-3.359-1.394-3-.216-4.147-1.708-4.635-1.938-4.74-1.945l-.063-.3-.063-.321c.265-.453.516-.92.746-1.394.07-.146.132-.286.2-.432a6.119,6.119,0,0,0,3.52-1.094,4.775,4.775,0,0,0,1.708-3.422,7.549,7.549,0,0,0-.829-3.8c-.627-1.282-1.547-2.614-1.234-4.008.139-.6.5-1.129.7-1.715a4.531,4.531,0,0,0-.516-3.38c-.537-1.032-1.289-1.945-1.9-2.948a11.443,11.443,0,0,1-1.505-4.182,6.441,6.441,0,0,0-.558-2.272,4.349,4.349,0,0,0-1.255-1.268,12.546,12.546,0,0,0-7.667-2.328c-1.945.07-3.889.592-5.82.355a21.326,21.326,0,0,1-3.394-.885c-2.4-.7-5.165-1-7.249.369s-2.92,4.07-4.335,6.182c-1.255,1.861-3.081,3.429-4.036,5.409v-.118a6.871,6.871,0,0,0-.53,1.443,10.274,10.274,0,0,0,.314,4.726,3.29,3.29,0,0,0,1.157,2.091,6.7,6.7,0,0,0,2.5.495c-.035.132-.07.272-.1.4a16.03,16.03,0,0,0-.356,3.394,16.337,16.337,0,0,0,11.668,15.661v.432a11.407,11.407,0,0,1-.07,1.227h0s-7.186-1.478-9.11-.474-5.722,1.777-6.273,2.349-2,.146-3.29,3.485-1.429,6.775-3.067,8.364-2.5,2.642-2.579,3.785.216,1.394-.425,1.777-1.575,1.854-1.289,2.426a2.021,2.021,0,0,1-.788,2.14,2.377,2.377,0,0,0-1,2.14s-.432,1.568-1.429,1.924-1.645,2.711-1.645,2.711l-3.241,3.729-6.426-7.109a2.711,2.711,0,0,0-3.82-.2l-3.164,2.809a6.231,6.231,0,0,0-3.157,1.882,8.188,8.188,0,0,0-1.631,2.432L383.72,605.5a4.377,4.377,0,0,0-.446,4.844l4.119,4.551v.042a7.2,7.2,0,0,0-3.98,1.617c-6.141,5.423-6.217,10.413-5.283,12.692S386.85,640.3,386.85,640.3a34.816,34.816,0,0,0,11.054,9.012h0l-.049.049c-.132.139-.258.286-.383.446l-.1.139a1,1,0,0,0-.1.139l-.118.167-.091.139-.125.209-.077.132-.146.279s-.035.063-.049.091-.119.258-.174.39l-.063.146a.781.781,0,0,1-.112.279l-.063.188a1.181,1.181,0,0,1-.091.279l-.063.2q-.042.146-.084.314a.934.934,0,0,1-.049.188c-.014.063-.077.341-.112.516a1.745,1.745,0,0,0,0,.2,3.139,3.139,0,0,0-.063.369.678.678,0,0,1-.035.258,1.689,1.689,0,0,0-.049.355,1.754,1.754,0,0,0,0,.272v1.352c-.146,8.364.341,9.556.341,9.556a4.628,4.628,0,0,0,3.792,2.844,5,5,0,0,0,1.227-.063c3.715-.648,12.434-2.14,15.508-1.568,1.847.342,5.269-.167,7.7-.627l.641-.125.446,1.394,1.394-.39,1.2.7.76.432c1.394,4.781,7.137,3.15,7.137,3.15l1.359.788,13.793.355a27.725,27.725,0,0,0,4.879,2.342,4.389,4.389,0,0,0,.7.153,30.944,30.944,0,0,0,3.84.07c1.059,0,1.875-.07,1.875-.07s-.139-3.743-.342-7.939a112.523,112.523,0,0,0,12.776-1.045c7.367-1.3,10.455-7.995,11.57-11.57a32.7,32.7,0,0,1,.7,4.44,32.37,32.37,0,0,0,1.143,3.847,12.858,12.858,0,0,0,1.575,2.858c5.43-1.854,2.14-4.635,1-5.848s.788-2.209.788-2.209,1.505-1,1.394-1.931-.216-1.924,4.649-1.854S502.083,650.145,502.083,650.145Zm-75.47-45.528c.063.411.739,4.8,1.352,5.959a7.6,7.6,0,0,1,.16,2.349c-2.879-.23-5.876-.355-5.876-.355a.7.7,0,0,1,.153.369l-.453-.1-.662-.16,5.311-8.064ZM416.1,621.345l4.984.795.418.063a17.789,17.789,0,0,0-.258,2.356c0,.07.112.16.272.265a7.488,7.488,0,0,0-.1,1.178c.084.4,2.412,1.248,5.088,1.959-.042.139-.077.279-.112.4h0c-2.363-1.241-6.078-1.819-6.51-2.739s-13.076-5.346-13.076-5.346-.467-.244-1.262-.627l3.332.627.913-.091a49.811,49.811,0,0,0,6.308,1.15Z" transform="translate(-139.96 -252.664)"/><path class="l" d="M493.674,696.28s-1.986,11.974-12.044,13.745S438,711.419,438,711.419s-19.2-2.788-26.137-18.979-11.41-22.673-5.457-22.952,38.042,10.838,39.882,10.978S495.445,655.834,493.674,696.28Z" transform="translate(-147.819 -295.698)"/><path class="m" d="M493.674,696.28s-1.986,11.974-12.044,13.745S438,711.419,438,711.419s-19.2-2.788-26.137-18.979-11.41-22.673-5.457-22.952,38.042,10.838,39.882,10.978S495.445,655.834,493.674,696.28Z" transform="translate(-147.819 -295.698)"/><path class="e" d="M403.477,719.122a4.593,4.593,0,0,0,3.743,2.858,4.88,4.88,0,0,0,1.213-.07c3.68-.634,12.323-2.091,15.369-1.554,1.833.342,5.227-.167,7.667-.62,1.6-.3,2.788-.586,2.788-.586s-2.83-9.423-3.185-9.7S418.3,701.7,418.3,701.7l-9.821-.7h0a5.165,5.165,0,0,0-3.325,1.959c-1.039,1.255-1.931,3.311-1.986,6.684C402.989,717.944,403.477,719.122,403.477,719.122Z" transform="translate(-147.666 -305.248)"/><path class="m" d="M403.482,719.122a4.593,4.593,0,0,0,3.743,2.858,40.181,40.181,0,0,1-2.662-3.889l.049-6.872A12.114,12.114,0,0,1,408.479,701h0s-5.172.355-5.311,8.643S403.482,719.122,403.482,719.122Z" transform="translate(-147.671 -305.248)"/><path class="n" d="M462.248,696.145l9.138-7.151,14.379-14.17-3.9-.174c-.585.369-2.216,1.54-2.279,2.962-.07,1.729-3.882.118-5.869,1.108s-11.689,13.41-13.375,13.333-3.046-.864-3.75.341a.7.7,0,0,1-.056.077Z" transform="translate(-163.851 -297.263)"/><path class="n" d="M406,702.973l.99.453c6.97,2.976,15.508,9.207,16.149,10.343.39.7,5.36,3.708,9.193,5.966,1.6-.3,2.788-.586,2.788-.586s-2.83-9.423-3.185-9.7-12.769-7.751-12.769-7.751l-9.821-.7h0A5.165,5.165,0,0,0,406,702.973Z" transform="translate(-148.537 -305.248)"/><path class="l" d="M378.152,668.477c.92,2.265,8.643,10.978,8.643,10.978s4.879,6.378,11.849,9.354,15.515,9.207,16.149,10.343c.411.7,5.945,4.057,9.841,6.35l.878.509,1.931,1.122,1.025.586s2.37-1.9,4.733-3.82,4.656-3.792,4.691-3.9c.07-.216.99-2.621.774-2.788-.112-.07-.592-1.052-1.492-2.189a10.044,10.044,0,0,0-3.6-2.983,10.232,10.232,0,0,1-4.677-4.879s-.314-.223-.781-.523a9.479,9.479,0,0,0-3.185-1.394c-1.561-.2-4.461-3.38-4.461-3.38a8.734,8.734,0,0,1-2.788-2.906c-.746-1.554-11.73-9.061-12.748-9.758l26.653,17.069,6.378,4.091,9.138-7.151,14.379-14.17-4.747-.209c-6.97-.307-19.4-.781-20.966-.425a11.848,11.848,0,0,1-3.9.251,13.661,13.661,0,0,1-5.876-1.073c-2.335-1.234-6.029-1.812-6.454-2.725s-12.964-5.311-12.964-5.311-17.069-9.061-23.161-3.68S377.218,666.211,378.152,668.477Z" transform="translate(-139.968 -291.055)"/><path class="o" d="M457.31,590.959l2.2,7.3,2.83,16.435,10.413.7,3.018-5,3-4.983s1.875-6.642,3.227-13.069c1.192-5.681,1.966-11.2.7-11.8-1.15-.53-1.9-2.446-2.4-4.5-.063-.251-.119-.509-.167-.767a40.087,40.087,0,0,1-.7-5.283s-21.823-1.136-18.777,7.862a14.206,14.206,0,0,1,.822,4.781,11.377,11.377,0,0,1-.07,1.22A10.2,10.2,0,0,1,457.31,590.959Z" transform="translate(-164.084 -265.534)"/><path class="p" d="M450.8,595.813l.781,12.4,1.77,10.552,1.986,4.879,1.77,26.737s17.076,1.979,21.23,0a1.819,1.819,0,0,0,.753-.585c5.018-7.576,3.373-29.518,3.373-29.518l1.931-14.191-1.275-7.353-3.081-.328-2.377-.251s-.537.655-1.3,1.68c-2.091,2.788-5.966,8.224-5.708,10.5.355,3.116-.425,6.273-1.631,6.8s-2.2,1.352-2.4.5a3.833,3.833,0,0,1-.216-2.265c.216-1.206-.92-4.879-.92-4.879s-1.91-4.321-1.77-6.161-.209-3.966-.781-4.461-1.345-1-.7-3.262-2.788-6.677-2.788-6.677Z" transform="translate(-162.112 -271.593)"/><path class="n" d="M483.157,623.313l.7,21.182,4.091,2.272a1.77,1.77,0,0,0,.753-.592c5.018-7.576,3.373-29.518,3.373-29.518l1.91-14.17-1.275-7.353-3.081-.328c1.192-5.681,1.972-11.194.7-11.793-1.15-.537-1.91-2.446-2.4-4.5h0l-2.216,14.978s.188,1.345.251,2.739a7.758,7.758,0,0,1-.181,2.642,8.811,8.811,0,0,0-.139,3.541c-1.275,2.251-1.917,6.419-2.223,10.455C483,618.218,483.157,623.313,483.157,623.313Z" transform="translate(-171.907 -268.132)"/><path class="e" d="M488.153,578s3.569.446,4.7,1.931,4.112,1.7,4.112,1.7,3.4,1.136,3.325,1.394,1,.7,3.122,1.276,5.667,2.621,5.667,3.122,5.576,6.015,5.576,6.587,1.694,2.69,1.485,6.447-.425,8.5.425,9.277,0,3.826,0,3.826a2.091,2.091,0,0,0-.07,2.265c.7,1.276-.146,6.587-.146,6.587l.077,5.527s-.781,3.485.139,3.61-.139,1.7-.139,1.7-.781,2.837.209,4.112,1.276,6.726,1.276,6.726l15.16,22.032s.209,4.036-4.607,3.966-4.747.92-4.6,1.84-1.345,1.917-1.345,1.917-1.917.99-.781,2.2,4.391,3.966-.99,5.806a12.813,12.813,0,0,1-1.561-2.83,33,33,0,0,1-1.136-3.826s-.495-5.388-1.485-6.092-.85-4.112-.85-4.112,1.394-2.788-.565-3.9S484.4,644.019,484.4,644.019l-.7-21.182s-.495-15.654,2.481-20.91a8.81,8.81,0,0,1,.139-3.541c.495-1.276-.07-5.388-.07-5.388Z" transform="translate(-172.074 -267.978)"/><path class="n" d="M452.2,589.862s-7.123-1.471-9.061-.481-5.667,1.77-6.231,2.342-1.986.139-3.262,3.485-1.394,6.726-3.046,8.287-2.481,2.621-2.551,3.75.216,1.394-.425,1.77-1.554,1.847-1.276,2.412,14.734,13.034,14.734,13.034.7,4.747,1.345,5.952-.7,17.78-2.126,18.909,9.591,1.025,9.591,1.025.5-10.873.927-11.445-.286-12.183-.286-12.183-.07-9.918.85-12.546.815-11.333.815-11.333.815-5.227,1.805-6.447S452.2,589.862,452.2,589.862Z" transform="translate(-154.687 -271.323)"/><path class="e" d="M451.9,589.555s-7.123-1.464-9.061-.474-5.667,1.77-6.231,2.335-1.986.146-3.255,3.485-1.394,6.733-3.046,8.287-2.481,2.621-2.551,3.757.209,1.394-.425,1.77-1.561,1.84-1.275,2.412,14.734,13.034,14.734,13.034.7,4.747,1.345,5.945-.7,17.78-2.126,18.916,9.563,1.025,9.563,1.025.495-10.873.92-11.438-.286-12.183-.286-12.183-.07-9.918.85-12.546.822-11.333.822-11.333.809-5.227,1.8-6.447S451.9,589.555,451.9,589.555Z" transform="translate(-154.598 -271.231)"/><path class="n" d="M461.953,577.862a14.2,14.2,0,0,1,.822,4.781,16.226,16.226,0,0,0,18.638-7.36,40.1,40.1,0,0,1-.7-5.283S458.907,568.864,461.953,577.862Z" transform="translate(-165.403 -265.54)"/><path class="o" d="M446.64,558.189a16.184,16.184,0,1,0,.349-3.374,16.184,16.184,0,0,0-.349,3.374Z" transform="translate(-160.851 -257.06)"/><path class="e" d="M425.522,619.11l-3.9,1.206a2.007,2.007,0,0,1-.781,2.091,2.363,2.363,0,0,0-.99,2.091s-.425,1.561-1.394,1.917-1.624,2.69-1.624,2.69l-3.262,3.757s-1.206.99-.99,1.485-1.275.634-1.275.634l.781,12.616,6.726,1.269,4.182-.425,3.4-1.268,2.976-1.777,1.345-3.485,5.945-9.061Z" transform="translate(-150.146 -280.434)"/><path class="o" d="M405.14,640.039S396.5,627.57,390.05,634.3s2.621,17.634,4.747,17.278,12.26-.92,12.26-.92Z" transform="translate(-143.014 -284.434)"/><path class="n" d="M447.14,554.826a1.965,1.965,0,0,1,1.192.537c.544.578.572,1.6,1.289,1.965a1.506,1.506,0,0,0,.843.1c1.882-.272,2.969-2.4,4.781-2.983a4.878,4.878,0,0,1,3.171.272,2.411,2.411,0,0,1,1.045.7c.606.788.181,1.938.46,2.885.39,1.317,1.959,1.84,3.325,2.007s2.893.272,3.8,1.3a3.485,3.485,0,0,1,.7,2.739,2.188,2.188,0,0,0,0,1.018c.376,1.06,2.216.906,2.7.063.349-.606.244-1.115,1.066-1.282a3.485,3.485,0,0,1,1.735.3,12.623,12.623,0,0,0,4.489.7,16.226,16.226,0,1,0-30.556-10.274Z" transform="translate(-161.003 -257.071)"/><path class="e" d="M465.974,561.133a2.188,2.188,0,0,1,0-1.018,3.485,3.485,0,0,0-.7-2.739c-.906-1.025-2.439-1.122-3.8-1.3s-2.934-.7-3.325-2.007c-.279-.948.146-2.091-.46-2.886a2.335,2.335,0,0,0-1.046-.7,4.879,4.879,0,0,0-3.171-.279c-1.812.586-2.9,2.711-4.781,2.983a1.513,1.513,0,0,1-.843-.1c-.7-.362-.746-1.394-1.289-1.966-.864-.913-2.5-.328-3.548-1a3.227,3.227,0,0,1-1.143-2.091,10.155,10.155,0,0,1-.314-4.7c.613-2.635,2.969-4.44,4.475-6.691,1.394-2.091,2.189-4.747,4.293-6.141s4.809-1.073,7.186-.369a20.113,20.113,0,0,0,3.366.885c1.91.237,3.833-.286,5.764-.349a12.351,12.351,0,0,1,7.611,2.314,4.182,4.182,0,0,1,1.241,1.255,6.33,6.33,0,0,1,.558,2.258,11.459,11.459,0,0,0,1.492,4.14c.6,1,1.345,1.9,1.882,2.934a4.482,4.482,0,0,1,.509,3.353c-.181.585-.537,1.108-.7,1.708-.314,1.394.6,2.7,1.22,3.98a7.514,7.514,0,0,1,.829,3.778,4.767,4.767,0,0,1-1.7,3.394,6.077,6.077,0,0,1-3.59,1.087,12.776,12.776,0,0,1-4.579-.7,3.486,3.486,0,0,0-1.729-.3c-.829.167-.7.7-1.073,1.282C468.19,562.04,466.35,562.193,465.974,561.133Z" transform="translate(-159.269 -253.293)"/><path class="n" d="M461.354,696.74l9.138-7.151,14.379-14.17-4.747-.209a3.1,3.1,0,0,0-1,1.931c-.07,1.736-3.882.125-5.869,1.115s-11.689,13.41-13.375,13.327-3.046-.857-3.75.341l-.056.084a2.015,2.015,0,0,1-1.08.641Z" transform="translate(-163.381 -297.433)"/><path class="l" d="M437.69,694.1l4.593,14.637.7,2.3,2.189-.6,4.823-1.324,21.467-5.9a18.624,18.624,0,0,0,7.73-2.091,23.37,23.37,0,0,1,13.34-2.913c2.837.265,5.994-.955,8.615-5.8,0,0,5.945-17.564-9.061-22.589s-15.738,2.669-15.738,2.669l-.2.125c-.585.369-2.216,1.54-2.279,2.962-.07,1.729-3.882.118-5.869,1.108s-11.675,13.466-13.361,13.389-3.046-.864-3.75.342a.688.688,0,0,1-.056.077c-.523.7-2.091.892-3.143.92H446.7l-.132.042-1.087.321Z" transform="translate(-158.139 -295.284)"/><path class="n" d="M439.4,660.528l2.209.355.92-9.138s-1.011-.153-2.279-.446C440.585,652.569,439.818,657.5,439.4,660.528Z" transform="translate(-158.658 -290.188)"/><path class="n" d="M497.452,603.184s6.587-1.91,4.963,16.791A52.232,52.232,0,0,1,488.6,650.5s-14.03,6.161-20.331,5.172-10.894-1.206-10.894-1.206a16.121,16.121,0,0,0-6.377-1.7c-3.541-.139-10.978-2.335-11.152-3.046s1.847-11.117,1-11.9c0,0,9.918.4,10.908,1.122s2.4.2,3.485,0,4.321-3.032,10.769-.558c0,0,2.2.216,3.046-.355a3.053,3.053,0,0,1,2.216-.139,6.1,6.1,0,0,0,1.533-.781c.216-.279,1.917,0,1.917,0a.753.753,0,0,0,1.059-.495,4.642,4.642,0,0,1,.99-1.554s1.917-10.769,5.527-14.8a2.314,2.314,0,0,0,.781-2.056C482.787,617.068,488.948,600.9,497.452,603.184Z" transform="translate(-158.789 -275.542)"/><path class="n" d="M448.85,701.9l9.354,11.326.063-.07c.07-.209.99-2.621.774-2.788s-1.84-3.687-5.1-5.172a9.709,9.709,0,0,1-4-3.645Z" transform="translate(-161.521 -305.414)"/><path class="n" d="M448.912,724.714l1.025.585s2.37-1.9,4.733-3.819,4.656-3.792,4.691-3.9c.07-.216.99-2.621.774-2.788-.112-.07-.592-1.052-1.492-2.189-6.343-1.777-2.3,2.628-1.763,2.83,0,0-7.723-1.77-8.148,6.635A10.036,10.036,0,0,0,448.912,724.714Z" transform="translate(-161.479 -308.637)"/><path class="e" d="M457.046,728.284l1.352.781,13.668.355a27.6,27.6,0,0,0,4.837,2.328,4.475,4.475,0,0,0,.7.153,31.864,31.864,0,0,0,3.813.07c1.045,0,1.854-.07,1.854-.07s-.648-17.244-1.136-19.056c-.23-.871-1.394-.7-2.509-.244a16.175,16.175,0,0,0-2.446,1.241s-5.806.558-6.733,1.059-3.541-.286-5.172,0-4.53-1.917-4.53-1.917c-7.932-2.621-3.485,2.265-2.906,2.481,0,0-7.716-1.77-8.141,6.635S457.046,728.284,457.046,728.284Z" transform="translate(-161.771 -308.646)"/><path class="q" d="M488.607,721.633c.146,3.569,2.927,8,4.593,10.343,1.045,0,1.854-.07,1.854-.07s-.648-17.244-1.136-19.056c-.23-.871-1.394-.7-2.509-.244C490.036,715.179,488.489,718.755,488.607,721.633Z" transform="translate(-173.566 -308.651)"/><path class="n" d="M488.607,721.633c.146,3.569,2.927,8,4.593,10.343,1.045,0,1.854-.07,1.854-.07s-.648-17.244-1.136-19.056c-.23-.871-1.394-.7-2.509-.244C490.036,715.179,488.489,718.755,488.607,721.633Z" transform="translate(-173.566 -308.651)"/><path class="m" d="M485.159,722.107c.941,3.443.927,7.311,2.426,9.646a4.491,4.491,0,0,0,.7.153,31.876,31.876,0,0,0,3.813.07c1.045,0,1.854-.07,1.854-.07s-.648-17.244-1.136-19.056c-.23-.871-1.394-.7-2.509-.244a16.184,16.184,0,0,0-2.446,1.241S483.954,717.7,485.159,722.107Z" transform="translate(-172.453 -308.651)"/><path class="n" d="M417.59,676.26s6.789,2.2,12.546,10.03Z" transform="translate(-152.049 -297.751)"/><g class="r" transform="translate(282.16 288.673)"><path d="M496.639,554.3l-.042.153a4.77,4.77,0,0,1-.237.592,4.186,4.186,0,0,1,.279-.746Z" transform="translate(-458.077 -549.47)"/><path d="M441.577,548.764a6.371,6.371,0,0,1,.523-1.394c-.035.118-.07.244-.1.369a10.163,10.163,0,0,0,.314,4.7,3.227,3.227,0,0,0,1.143,2.091c1.052.7,2.683.091,3.541,1,.551.579.578,1.61,1.289,1.966a1.394,1.394,0,0,0,.85.1c1.882-.265,2.969-2.391,4.781-2.976a4.781,4.781,0,0,1,3.164.272,2.336,2.336,0,0,1,1.052.7c.606.781.181,1.938.46,2.886.39,1.31,1.959,1.833,3.318,2.007s2.893.265,3.806,1.3a3.429,3.429,0,0,1,.7,2.739,2.251,2.251,0,0,0,0,1.011c.376,1.066,2.216.906,2.7.07.349-.613.244-1.115,1.066-1.289a3.555,3.555,0,0,1,1.735.3,12.761,12.761,0,0,0,4.579.7,6.176,6.176,0,0,0,3.59-1.087,4.288,4.288,0,0,0,1.1-1.345,4.53,4.53,0,0,1-1.526,2.4,6.077,6.077,0,0,1-3.59,1.087,12.756,12.756,0,0,1-4.579-.7,3.486,3.486,0,0,0-1.735-.3c-.822.167-.7.7-1.066,1.282-.481.843-2.321,1-2.7-.063a2.278,2.278,0,0,1,0-1.018,3.429,3.429,0,0,0-.7-2.739c-.913-1.025-2.44-1.122-3.806-1.3s-2.927-.7-3.318-2.007c-.279-.948.146-2.091-.46-2.886a2.335,2.335,0,0,0-1.045-.7,4.879,4.879,0,0,0-3.171-.279c-1.812.586-2.9,2.711-4.781,2.983a1.533,1.533,0,0,1-.85-.1c-.7-.362-.739-1.394-1.289-1.966-.857-.913-2.488-.328-3.541-1a3.228,3.228,0,0,1-1.143-2.091,10.155,10.155,0,0,1-.314-4.719Z" transform="translate(-441.433 -547.37)"/></g><path class="n" d="M495.868,629.243c-1.3,1.749-2.788,3.373-3.924,5.227a9.918,9.918,0,0,0-1.722,6.182c1.185-1.22,1.729-2.906,2.481-4.433,1.269-2.593,3.164-4.788,4.76-7.165.307-.453,2.265-3.081,1.275-3.206C497.925,625.744,496.335,628.644,495.868,629.243Z" transform="translate(-174.052 -282.476)"/><path class="d" d="M413.124,589.424l14.2,26.848c.425.795-.732,2.237-2.579,3.22L353.88,656.969c-1.847.976-3.694,1.122-4.112.321l-14.2-26.841c-.425-.8.641-2.412,2.488-3.387l70.863-37.477C410.775,588.6,412.706,588.622,413.124,589.424Z" transform="translate(-127.168 -271.26)"/><g class="i" transform="translate(208.309 317.573)"><path class="b" d="M413.124,589.424l14.2,26.848c.425.795-.732,2.237-2.579,3.22L353.88,656.969c-1.847.976-3.694,1.122-4.112.321l-14.2-26.841c-.425-.8.641-2.412,2.488-3.387l70.863-37.477C410.775,588.6,412.706,588.622,413.124,589.424Z" transform="translate(-335.477 -588.834)"/></g><rect class="b" width="41.757" height="1.471" transform="translate(246.637 349.196) rotate(-27.87)"/><rect class="j" width="41.757" height="1.471" transform="translate(248.319 352.377) rotate(-27.87)"/><rect class="j" width="41.757" height="1.471" transform="translate(249.997 355.545) rotate(-27.87)"/><rect class="j" width="41.757" height="1.471" transform="translate(251.678 358.727) rotate(-27.87)"/><path class="j" d="M359.236,643.718a9.9,9.9,0,0,0,3.666,18.6l-.781-1.478a2.251,2.251,0,0,1,.7-2.9,3.924,3.924,0,0,0,6.092-3.22,2.258,2.258,0,0,1,2.788,1.045l.8,1.519a9.9,9.9,0,0,0-13.278-13.57Zm9.5,8.65a.53.53,0,0,1-.035.209.586.586,0,0,1-.209.223l-.174.1a3.931,3.931,0,1,1-7.778.7h-.049a1.317,1.317,0,0,1-.732-1.673,2.516,2.516,0,0,1,.579-.641,3.631,3.631,0,0,0,1.087-2.356,4.177,4.177,0,0,1,.258.537.878.878,0,0,1,1.073-.62,2.939,2.939,0,0,0,.5.188,1.144,1.144,0,0,0,.453-.091l.927-.355a1.394,1.394,0,0,1,1.826.251,10.108,10.108,0,0,1,1.547,1.54,3.338,3.338,0,0,1,.725,1.993Z" transform="translate(-132.769 -287.541)"/><path class="o" d="M404.66,645.25c-.07,9.347,19.272,11.333,19.272,11.333l4.942.781,2.209.355.92-9.138s-1.011-.153-2.279-.446c-1.868-.439-4.294-1.192-4.8-2.251C424.071,644.114,404.73,635.9,404.66,645.25Z" transform="translate(-148.131 -287.024)"/><path class="e" d="M497.2,601.127s6.587-1.91,4.963,16.791a52.232,52.232,0,0,1-13.814,30.528s-14.03,6.161-20.331,5.172-10.908-1.206-10.908-1.206a16.121,16.121,0,0,0-6.377-1.7c-3.541-.139-10.978-2.335-11.152-3.046s1.847-11.152,1-11.9c0,0,9.918.4,10.908,1.122s2.4.2,3.485,0,4.321-3.039,10.769-.558c0,0,2.2.216,3.046-.355a3.053,3.053,0,0,1,2.216-.139,6.089,6.089,0,0,0,1.533-.781c.216-.279,1.917,0,1.917,0a.746.746,0,0,0,1.059-.495,4.711,4.711,0,0,1,.99-1.561s1.917-10.762,5.527-14.8a2.293,2.293,0,0,0,.781-2.049C482.531,615.011,488.7,598.883,497.2,601.127Z" transform="translate(-158.707 -274.921)"/><path class="d" d="M865.745,268.319V307.35c0,1.164-2.175,2.091-4.879,2.091H757.879c-2.69,0-4.879-.941-4.879-2.091V268.319c0-1.164,2.175-2.349,4.879-2.349h103C863.571,265.991,865.745,267.155,865.745,268.319Z" transform="translate(-253.681 -173.43)"/><g class="r" transform="translate(487.275 99.642)"><path class="b" d="M848.445,278.509V317.54c0,1.157-2.182,2.091-4.879,2.091H740.6c-2.69,0-4.879-.948-4.879-2.091V278.509c0-1.164,2.175-2.349,4.879-2.349H843.58C846.263,276.16,848.445,277.345,848.445,278.509Z" transform="translate(-735.72 -276.16)"/></g><path class="d" d="M865.745,268.319V307.35c0,1.164-2.175,2.091-4.879,2.091H757.879c-2.69,0-4.879-.941-4.879-2.091V268.319c0-1.164,2.175-2.349,4.879-2.349h103C863.571,265.991,865.745,267.155,865.745,268.319Z" transform="translate(-253.681 -173.43)"/><g class="i" transform="translate(499.319 92.54)"><path class="b" d="M865.745,268.319V307.35c0,1.164-2.175,2.091-4.879,2.091H757.879c-2.69,0-4.879-.941-4.879-2.091V268.319c0-1.164,2.175-2.349,4.879-2.349h103C863.571,265.991,865.745,267.155,865.745,268.319Z" transform="translate(-753 -265.97)"/></g><rect class="b" width="53.641" height="1.896" transform="translate(548.82 106.48)"/><rect class="j" width="53.641" height="1.896" transform="translate(548.82 111.094)"/><rect class="j" width="53.641" height="1.896" transform="translate(548.82 115.708)"/><rect class="j" width="53.641" height="1.896" transform="translate(548.82 120.322)"/><path class="j" d="M779.549,280a12.72,12.72,0,0,0-7.033,23.335v-2.154a2.9,2.9,0,0,1,2.544-2.865,5.046,5.046,0,0,0,8.852,0,2.9,2.9,0,0,1,2.544,2.865v2.209A12.72,12.72,0,0,0,779.549,280Zm5.576,15.522a.551.551,0,0,1-.537.342,1.6,1.6,0,0,1-.258,0,5.046,5.046,0,0,1-9.883-1.436,4.991,4.991,0,0,1,.655-2.481l-.056-.035a1.687,1.687,0,0,1,.167-2.335,3.421,3.421,0,0,1,1.046-.383,4.635,4.635,0,0,0,2.649-2.021,4.742,4.742,0,0,1,0,.767,1.122,1.122,0,0,1,1.6-.056c.16.16.265.383.46.509a1.206,1.206,0,0,0,.565.16l1.262.167a1.784,1.784,0,0,1,1.924,1.394,12.2,12.2,0,0,1,.829,2.683,4.238,4.238,0,0,1-.4,2.732Z" transform="translate(-257.863 -177.682)"/><path class="s" d="M893.663,598.626c-.962-3.485-1.589-6.538-1.589-6.538a13.589,13.589,0,0,0-1.784-6.628l-.035-.955h0l-.279-7.081a23.861,23.861,0,0,1,1.645-3.764c1.185-2.265-.4-10.35-.4-10.35s-5.158-11.284-4.286-18.6S876.015,512.8,876.015,512.8a32.062,32.062,0,0,1,.746-7.165,5.7,5.7,0,0,0,.077-1.505,1.6,1.6,0,0,0,0-.181V504c-.349-4.788-4.482-13.626-4.482-13.626l-.153-17.153s2.035-10.2-2.439-23.6c-1.561-4.677-2.586-8.434-3.255-11.333-.077-.328-.153-.641-.216-.948,8.078-1.547,14.24-2.788,14.24-2.788s-5.464-19.516-8.782-22.861-6.273-14.072-6.273-14.072-2.189-13.863.328-18.031,2.614-11.263,2.614-11.263,5.938-4.677,6.628-6.677a32.585,32.585,0,0,0,1.7-8.824c-.091-2.335-.934-4.412-.7-5.653s-2.014-5.848-1.08-8.106a6.011,6.011,0,0,0,.328-2.154v-.091a30.056,30.056,0,0,0-.76-5.757,16.407,16.407,0,0,0-6.175-3l-.153-.523-.4-1.394c-.209-.125-.411-.237-.613-.335v-.5l-.132-2,.781-4.537c1.582-7.9-8.908-8.664-8.908-8.664a5.45,5.45,0,0,0-3.053-2.474c-2.133-.7.1,11.786,1.115,12.546.76.572,3.192,4.4,4.363,6.273h0l.2.307a4.745,4.745,0,0,0-.46.523l.5,2.7.077.418a10.926,10.926,0,0,0-1.554,2.9s1.986,2.021,1.694,4.377a13.438,13.438,0,0,0,.843,5.395c-.118-.125-1.519-1.526-2.844-1.115s-5.039,1.673-5.039,1.673-2.788.6-2.5,1.206-1.777,3.4-1.777,3.4l-7.806-6.844c-.084-.209-.167-.418-.244-.634a17.865,17.865,0,0,1-.774-3.1,16.956,16.956,0,0,0,2.377-.857,5.206,5.206,0,0,0,2.035-1.394,8.536,8.536,0,0,0,1.087-3.29c.509-2.216,1.715-4.217,2.551-6.336a20.261,20.261,0,0,0,1.025-11.194,7.43,7.43,0,0,0-1.282-3.227c-1.3-1.645-3.548-2.251-5.22-3.534s-2.788-3.3-4.726-4.245a8.793,8.793,0,0,0-5.729-.272,30.577,30.577,0,0,0-10.525,4.287c-1.066.7-2.244,1.492-3.485,1.31a4.751,4.751,0,0,1-2.642-1.791.586.586,0,0,1,0-.1l-.091-.091a13.305,13.305,0,0,0-.948,5.674,3.91,3.91,0,0,0,.07.9v.314a1.69,1.69,0,0,1,0,.265h0a1.6,1.6,0,0,1-.042.4,2.9,2.9,0,0,1-.7,1.038,6.274,6.274,0,0,0-.585.864,1.067,1.067,0,0,1,.091-.314,4.4,4.4,0,0,0-.7,2.4,2.369,2.369,0,0,0,.627,1.68,8.192,8.192,0,0,0,1.269.941,13.612,13.612,0,0,0-.132,2.509,14.574,14.574,0,0,0,7.569,12.149c.1.209.188.418.286.634a18.039,18.039,0,0,1,1.68,8.155,4.272,4.272,0,0,1-.07.6c-.028.2-.181.216-.258.328h0s-12.427.6-15.452-1.938-7.137,6.754-7.137,6.754-4.419,1.039-5.346.209-6.12.112-6.12.112a11.208,11.208,0,0,0-7.869-2.537,23.064,23.064,0,0,0-5.827-2.948h0l-.146-.042h0a6.4,6.4,0,0,0-2.788-.251s-6.308-4.816-8.2-7.458-10.762-12.372-10.8-12.42l-.049-.481-.153-1.464a5.266,5.266,0,0,1-.76.1l-.188-.5a26.83,26.83,0,0,0-1.966-4.07s-.07-1.854.453-2.335-.5-7.235-.5-7.235-6-12.664-10.566-2.858c0,0-9.061,6.58-.983,13.515,0,0,3.185,1.394,3.673,2.579.321.767,1.464,2.9,2.23,4.314.125.237.244.446.341.634l-.084.077.16,1.206.063.467c-1.436.892-2.4,1.763-2.14,2.384a13.471,13.471,0,0,1,1.018,3.29s11.347,13.138,12.971,18.882c0,0,29.692,16.135,39.289,17l-1.255,8.671a68.745,68.745,0,0,0-.112,7.04c.2,1.847-.753,10.274-.753,10.274s-1.185,12.386-2.516,14.17-.8,9.159-.8,9.159a62.272,62.272,0,0,1-1.506,10.552c-1.22,4.733,0,10.49,0,10.49s-4.412,11.277,6.886,3.311c0,0,5.674-.572,12.211-1.046v.655c0,.843.042,1.756.07,2.718.153,6.357.453,15.111,1,21.725.969,11.689,5.423,34.689,5.423,34.689l.446,11.64a15.991,15.991,0,0,0-.2,3.339,21.607,21.607,0,0,0,3.555,11.563l1.192,7.723s2.286,5.039,2.446,8.092a4.184,4.184,0,0,1-.063.746,5.157,5.157,0,0,0-.056,1.192c0,3.527,2.467,11.884,2.467,11.884s.453,8.5,1.742,8.942c1.108.376-1.262,4.956-1.973,6.273q-.034-.12-.056-.244c-.091.174-.146.265-.146.265a6.058,6.058,0,0,0-.314,2.168,3.081,3.081,0,0,0,1.526,2.934c2.474,1.394,3.819,2.565,1.791,3.136a21.618,21.618,0,0,0-2.23.565c0-.1-.084-.2-.119-.286a1.394,1.394,0,0,0-.781,1.519,6.413,6.413,0,0,0,.871,2.858,30.961,30.961,0,0,0,3.694,6.154l.969-.146a5.071,5.071,0,0,1-.523,1.073,4.133,4.133,0,0,1-1.394,1.331,4.4,4.4,0,0,1-1.715.7,4.879,4.879,0,0,0-3.541,1.9c-1.206,1.687-1.917,3.959.7,5.827l9.228,2.788s15.738,1.436,14.769-2.049-1.589-6.538-1.589-6.538A13.939,13.939,0,0,0,846.163,592a7.659,7.659,0,0,0-.585-.9l.551-.084s.843-7.806,2.314-9.347c.341-.349.411-.613.321-.815.139-.432-.265-.7-.788-.781a1.114,1.114,0,0,1-.1.307,7.813,7.813,0,0,0-1.526-.112s-.7-4.043.934-5.576a1.561,1.561,0,0,0,.272-1.22,6.607,6.607,0,0,0-.237-1.645.427.427,0,0,0-.049.1,60.454,60.454,0,0,0-4.029-9.416s-.265-3.694.7-5.206-.906-20.087-.906-20.087.042-9.012-1.269-13.152,1.052-9.172,1.052-9.172a1.3,1.3,0,0,0-.042-.272v-.063s-.077-.551-.2-1.394a.459.459,0,0,1,0,.091c-.341-2.37-1-6.663-1.394-8.65-.62-2.788-.5-16.393-.5-16.393l2.091-5.883,4.461,9.828,4.844,13.145a11.357,11.357,0,0,1,2.412,5.576v.418a7.659,7.659,0,0,0,0,.892,7.932,7.932,0,0,0,1.5,4.684s1.394,6.273,3.234,7.778,1.966,4.614,1.966,4.614,2.516,9.061,3.6,10.6c.906,1.317,1.094,5.025,1.129,6.161h0v.335s.432,3.248.523,5.987v.906a9.911,9.911,0,0,1-.181,2.223v-.328a23.427,23.427,0,0,0-.432,5.7c.07,3.283.7,7.144,2.788,9.347,3.589,3.813,5.736,3.234,5.736,3.234s-1.464,4.99-3.485,6.057a1.469,1.469,0,0,0-.216.146,1.979,1.979,0,0,0-.056-.279,2.384,2.384,0,0,0-.53,1.854,13.3,13.3,0,0,0,2.788,7.214,4.056,4.056,0,0,0,1.756.934,3.41,3.41,0,0,1-.307.216,6.569,6.569,0,0,1-.7.355,3.414,3.414,0,0,1-1.032.307,4.914,4.914,0,0,0-3.541,1.9c-1.2,1.687-1.917,3.952.7,5.827l9.228,2.788S894.66,602.111,893.663,598.626Z" transform="translate(-248.972 -184.459)"/><path class="t" d="M871.447,731.437l-8.935-2.788c-2.5-1.875-1.812-4.147-.648-5.834a4.7,4.7,0,0,1,3.422-1.889,4.182,4.182,0,0,0,1.659-.7,3.9,3.9,0,0,0,1.345-1.331,6.523,6.523,0,0,0,.878-3.443s9.563-3.206,12.323-.474a7.442,7.442,0,0,1,1.241,1.673,14.392,14.392,0,0,1,1.471,6.189s.613,3.053,1.547,6.538S871.447,731.437,871.447,731.437Z" transform="translate(-286.349 -309.15)"/><path class="t" d="M933.087,722.845l-8.928-2.788c-2.509-1.868-1.819-4.14-.655-5.82a4.656,4.656,0,0,1,3.422-1.889,3.485,3.485,0,0,0,1-.314,5.757,5.757,0,0,0,.7-.356c2.419-1.45,2.223-4.774,2.223-4.774s9.57-3.206,12.323-.474a6.813,6.813,0,0,1,.976,1.22,13.965,13.965,0,0,1,1.736,6.635s.613,3.067,1.547,6.545S933.087,722.845,933.087,722.845Z" transform="translate(-305.027 -306.559)"/><path class="n" d="M884.741,715.02a7.444,7.444,0,0,1,1.241,1.673h0L871.54,718.93a6.524,6.524,0,0,0,.878-3.443S881.981,712.288,884.741,715.02Z" transform="translate(-289.599 -309.161)"/><path class="n" d="M946.484,707.63l.1,2.718c-2.091,3.806-13.048,3.408-16.289,1.666a5.767,5.767,0,0,0,.7-.356c2.419-1.45,2.223-4.774,2.223-4.774s9.57-3.206,12.323-.474A6.819,6.819,0,0,1,946.484,707.63Z" transform="translate(-307.404 -306.553)"/><path class="l" d="M921.1,629.459a23.911,23.911,0,0,0-1.582,3.764l.37,9.758c-2.307,4.182-15.174,3.3-16.986,1.15s-3.882-7.869-1.945-8.935,3.345-6.05,3.345-6.05-2.091.572-5.576-3.241-2.83-12.6-2.293-14.72-.355-9.124-.355-9.124-.063-4.935-1.108-6.5-3.485-10.6-3.485-10.6-.119-3.081-1.9-4.621-3.136-7.778-3.136-7.778a8.086,8.086,0,0,1-1.436-5.248c.251-3.095-2.342-6.329-2.342-6.329l-4.7-13.145-4.328-9.835-1.986,5.89s-.1,13.577.509,16.393,1.631,10.3,1.631,10.3-2.279,5.025-1,9.172,1.248,13.159,1.248,13.159,1.819,18.561.892,20.08-.7,5.206-.7,5.206,5.471,10.65,3.924,12.19-.9,5.576-.9,5.576,3.485-.132,2.035,1.394-2.237,9.347-2.237,9.347l-14.832,2.3a30.9,30.9,0,0,1-3.583-6.161c-2.147-4.489.216-4.077,2.182-4.649s.7-1.749-1.735-3.143-1.171-4.767-1.171-4.767,3.339-6.175,2.091-6.621-1.7-8.942-1.7-8.942-2.851-10.009-2.342-12.748-2.328-9.165-2.328-9.165l-1.157-7.73a21.356,21.356,0,0,1-3.276-14.56l-.432-11.995s-4.342-23-5.283-34.724c-.606-7.486-.913-17.717-1.052-24.109-.077-3.583-.1-5.959-.1-5.959l53.02-7.59a44.266,44.266,0,0,0,1.269,7.869c.655,2.9,1.652,6.656,3.171,11.333,4.342,13.41,2.391,23.607,2.391,23.607l.167,17.146s5.123,11.277,4.286,15.264a33.145,33.145,0,0,0-.7,7.186s11.438,24.611,10.608,31.922,4.182,18.6,4.182,18.6S922.254,627.193,921.1,629.459Z" transform="translate(-280.748 -240.147)"/><path class="m" d="M908.13,600.108l16.121-2.788S915.434,607.05,908.13,600.108Z" transform="translate(-300.686 -273.832)"/><path class="n" d="M925.846,574.74s.774,5.708-2.656,8C923.211,582.741,929.463,581.515,925.846,574.74Z" transform="translate(-305.25 -266.99)"/><path class="n" d="M916.414,548.63S903.3,560.3,898.292,559.573,916.414,548.63,916.414,548.63Z" transform="translate(-297.49 -259.078)"/><path class="n" d="M875.1,610s-10.2,2.732-10.343,6.872S875.1,610,875.1,610Z" transform="translate(-287.544 -277.674)"/><path class="m" d="M880.908,683.55s-14.421,3.269-10.239,4.956a70.541,70.541,0,0,0,11.033,2.913S886.393,691.482,880.908,683.55Z" transform="translate(-289.105 -299.96)"/><g class="u" transform="translate(561.561 253.231)"><path d="M866.2,694.106a2.892,2.892,0,0,1-1.394-2.056c-.084.167-.139.265-.139.265s-1.227,3.373,1.171,4.767c.279.16.537.314.781.467.432-.1.892-.174,1.338-.307C869.863,696.706,868.56,695.5,866.2,694.106Z" transform="translate(-848.981 -555.767)"/><path d="M893.476,691.487c.383-.383.335-1.331.042-2.537a6.845,6.845,0,0,0-.7,3.6A2.857,2.857,0,0,1,893.476,691.487Z" transform="translate(-857.602 -554.828)"/><path d="M886.819,604.75a16.728,16.728,0,0,0-.809,4.572,17.785,17.785,0,0,1,1.011-3.157S886.944,605.621,886.819,604.75Z" transform="translate(-855.544 -529.314)"/><path d="M934.483,593.042a5.478,5.478,0,0,0,.084-1.352c-.146.927-.244,1.784-.307,2.537C934.33,593.844,934.4,593.446,934.483,593.042Z" transform="translate(-870.165 -525.357)"/><path d="M888.952,666.426a7.837,7.837,0,0,0,.258-2.746,9.277,9.277,0,0,0-.571,3.485A3.349,3.349,0,0,1,888.952,666.426Z" transform="translate(-856.34 -547.171)"/><path d="M885.6,700.8a48.489,48.489,0,0,0-1.394,7.667l-14.832,2.3a31.223,31.223,0,0,1-3.576-6.154c-.188-.4-.342-.753-.467-1.073-.878.446-1.192,1.394.084,4.049A30.939,30.939,0,0,0,869,713.743l14.832-2.3s.809-7.806,2.23-9.34C886.755,701.316,886.274,700.939,885.6,700.8Z" transform="translate(-849.047 -558.418)"/><path d="M858.317,617.525s.453,8.5,1.7,8.949h0c.572-1.429.934-2.788.376-2.976-1.255-.446-1.7-8.949-1.7-8.949s-2.858-10.009-2.342-12.741-2.328-9.165-2.328-9.165l-1.164-7.73a21.356,21.356,0,0,1-3.276-14.56l-.46-11.953s-4.342-23-5.283-34.724c-.606-7.486-.913-17.724-1.052-24.109,0-1.157-.042-2.182-.063-3.046l-.425.063s0,2.37.111,5.959c.139,6.384.446,16.623,1.046,24.109.948,11.689,5.29,34.724,5.29,34.724l.46,11.953a21.355,21.355,0,0,0,3.276,14.56l1.157,7.73s2.844,6.426,2.328,9.166S858.317,617.525,858.317,617.525Z" transform="translate(-842.3 -496.52)"/><path d="M928.424,705.5a14.412,14.412,0,0,1-2.579-5.757c-1.471,1.394.481,6.691,2.2,8.733,1.812,2.154,14.679,3.018,16.986-1.143l-.091-2.349C941.743,708.425,930.138,707.546,928.424,705.5Z" transform="translate(-867.458 -558.097)"/><path d="M955.192,686.958a23.921,23.921,0,0,0-1.582,3.764l.063,1.729c.258-.641.627-1.5,1.143-2.516a7.478,7.478,0,0,0,.418-3.074Z" transform="translate(-876.028 -554.194)"/><path d="M926.908,682.981a23.277,23.277,0,0,0,1.1-2.976s-2.091.572-5.576-3.241c-2.53-2.788-2.879-8.19-2.669-11.744-.537,2.091-1.185,10.908,2.293,14.72C924.35,682.236,926.023,682.849,926.908,682.981Z" transform="translate(-865.643 -547.577)"/><path d="M909,622.8a66.926,66.926,0,0,1,.53,7.291,9,9,0,0,1,.209-1.15c.537-2.091-.355-9.117-.355-9.117s-.07-4.935-1.115-6.5-3.485-10.6-3.485-10.6-.119-3.081-1.91-4.614-3.136-7.778-3.136-7.778a8.113,8.113,0,0,1-1.436-5.255c.251-3.095-2.342-6.322-2.342-6.322L891.252,565.6l-4.328-9.828-1.993,5.876v1.875l1.624-4.774,4.328,9.828,4.7,13.145s2.593,3.227,2.342,6.322a8.07,8.07,0,0,0,1.436,5.255s1.345,6.273,3.136,7.778,1.9,4.614,1.9,4.614,2.447,9.061,3.485,10.6S909,622.8,909,622.8Z" transform="translate(-855.217 -514.473)"/></g><path class="v" d="M916.385,321.211l-.753,4.537.132,2,.1,1.478-5.123.7-.62-1.046h0c-1.136-1.889-3.485-5.729-4.238-6.273-.976-.76-3.157-13.208-1.094-12.546a5.4,5.4,0,0,1,2.969,2.481S917.918,313.321,916.385,321.211Z" transform="translate(-299.413 -186.782)"/><path class="n" d="M918.553,336.688l-5.123.7-.62-1.046h0a4.544,4.544,0,0,1,5.646-1.157Z" transform="translate(-302.104 -194.244)"/><path class="w" d="M919.788,339.3l-6.719,1.833-.181-1-.488-2.7a4.667,4.667,0,0,1,6.531-1.143l.39,1.394Z" transform="translate(-301.98 -194.465)"/><path class="v" d="M757.619,323.565l-7.088,4.182s-.3-.558-.7-1.338c-.746-1.394-1.854-3.555-2.168-4.321-.474-1.178-3.555-2.579-3.555-2.579-7.855-6.97.934-13.515.934-13.515,4.405-9.8,10.225,2.872,10.225,2.872s1,6.754.495,7.235-.432,2.328-.432,2.328a27.39,27.39,0,0,1,1.9,4.077C757.486,323.147,757.619,323.565,757.619,323.565Z" transform="translate(-249.998 -184.431)"/><path class="n" d="M761.525,332.368l-7.088,4.182s-.3-.558-.7-1.338c.983-.892,4.5-3.973,5.688-3.882a9.2,9.2,0,0,0,1.715,0C761.393,331.949,761.525,332.368,761.525,332.368Z" transform="translate(-253.905 -193.234)"/><path class="w" d="M762.451,334.69l-7.981,4.321-.23-1.742-.16-1.206s4.558-4.217,5.959-4.119a7.542,7.542,0,0,0,2.091-.084l.153,1.457Z" transform="translate(-254.008 -193.396)"/><path class="v" d="M882.3,358.17s-35.31,5.367-28.765,2.962c4.558-1.687,6.273-4.691,6.538-7.953a18.624,18.624,0,0,0-1.638-8.162,35.613,35.613,0,0,0-3.415-6.273s26.534-15.954,21.607-2.189a21.562,21.562,0,0,0-1.289,6.482,18.12,18.12,0,0,0,.948,6.475,19.377,19.377,0,0,0,6.015,8.657Z" transform="translate(-283.9 -193.122)"/><path class="n" d="M877.655,336.569a21.564,21.564,0,0,0-1.289,6.482c-2.467,2.244-5.276,2.209-8.873,2.349-2.788.1-5.8.892-8.057-.355a35.612,35.612,0,0,0-3.415-6.273S882.555,322.81,877.655,336.569Z" transform="translate(-284.897 -193.128)"/><circle class="v" cx="14.679" cy="14.679" r="14.679" transform="translate(566.914 123.89)"/><path class="n" d="M882.3,365.652s-35.31,5.367-28.765,2.962c4.558-1.687,6.273-4.691,6.538-7.953,1.694-1.986,5.186-3.485,7.437-4.321a10.587,10.587,0,0,1,6.419-.348,8.942,8.942,0,0,1,2.384.99A19.376,19.376,0,0,0,882.3,365.652Z" transform="translate(-283.9 -200.605)"/><path class="n" d="M920,340.2l-6.719,1.833-.181-1a6.008,6.008,0,0,1,6.433-2.481Z" transform="translate(-302.192 -195.37)"/><path class="n" d="M762.521,335.338l-7.981,4.321-.23-1.742A59.079,59.079,0,0,1,762.381,334Z" transform="translate(-254.078 -194.044)"/><path class="n" d="M896.61,494.059c-13.647,2.7-33.086,6.273-36.244,5.444-2.607-.7-10.817-.286-17.961.237-.077-3.583-.1-5.959-.1-5.959l53.02-7.59A44.272,44.272,0,0,0,896.61,494.059Z" transform="translate(-280.739 -240.159)"/><path class="e" d="M882.649,444.391s-44.928,9.5-49.842,8.211-29.769,1.269-29.769,1.269c-10.922,7.946-6.67-3.325-6.67-3.325s-1.206-5.75,0-10.49a64.434,64.434,0,0,0,1.443-10.546s-.53-7.381.76-9.158,2.419-14.163,2.419-14.163.906-8.427.7-10.274a67.083,67.083,0,0,1,.1-7.033l1.255-8.685C793.755,379.32,765,363.15,765,363.15c-1.582-5.736-12.546-18.888-12.546-18.888a14.151,14.151,0,0,0-.99-3.3c-.815-1.945,10.127-6.315,10.127-6.315s8.643,9.758,10.455,12.434,7.939,7.472,7.939,7.472a5.925,5.925,0,0,1,2.725.244l.139.042h0a22.067,22.067,0,0,1,5.639,2.955,10.706,10.706,0,0,1,7.625,2.544s5.025-.934,5.917-.1,5.179-.2,5.179-.2,3.959-9.291,6.893-6.747,14.964,1.952,14.964,1.952c1.519-2.189,5.36-3.868,7.771-4.746a10.587,10.587,0,0,1,6.419-.355,8.238,8.238,0,0,1,2.586,1.129l7.569,6.865s1.993-2.788,1.722-3.4,2.426-1.2,2.426-1.2,3.527-1.248,4.879-1.673,2.635,1,2.753,1.122a14.263,14.263,0,0,1-.822-5.395c.272-2.293-1.652-4.377-1.652-4.377,3.91-10.762,13.982-2.265,13.982-2.265s1.338,5.75.432,8.008,1.255,6.858,1.052,8.1.62,3.311.7,5.653a34.174,34.174,0,0,1-1.631,8.824c-.662,2-6.412,6.663-6.412,6.663s-.1,7.04-2.53,11.208-.293,18.031-.293,18.031,2.886,10.748,6.1,14.079S882.649,444.391,882.649,444.391Z" transform="translate(-253.201 -194.241)"/><path class="n" d="M837.839,376.206s-1.512-4.015-2.788-4.335a29.58,29.58,0,0,1-3.631-1.464l.7-1.547s4.677,1.087,5.471,2.419S837.839,376.206,837.839,376.206Z" transform="translate(-277.443 -204.607)"/><path class="n" d="M799.752,366.56c-.2,1.241-11.152,2.788-11.152,2.788l5.332-5.778h0l.139.042h0a22.066,22.066,0,0,1,5.68,2.948Z" transform="translate(-264.468 -203.004)"/><circle class="x" cx="0.99" cy="0.99" r="0.99" transform="translate(501.912 146.87)"/><circle class="x" cx="0.99" cy="0.99" r="0.99" transform="translate(503.25 148.794)"/><circle class="x" cx="0.99" cy="0.99" r="0.99" transform="translate(504.554 150.564)"/><circle class="x" cx="0.99" cy="0.99" r="0.99" transform="translate(505.92 152.488)"/><circle class="x" cx="0.802" cy="0.802" r="0.802" transform="translate(622.269 148.097)"/><circle class="x" cx="0.802" cy="0.802" r="0.802" transform="translate(622.464 149.909)"/><circle class="x" cx="0.802" cy="0.802" r="0.802" transform="translate(622.638 151.721)"/><path class="n" d="M842.56,427.31c-.118-.139,29.009,33.874,49.8,12.769C892.353,440.079,858.458,446.01,842.56,427.31Z" transform="translate(-280.818 -222.317)"/><path class="n" d="M820.67,454.36s16.644-.188,18.568,4.523l.188,4.977a3.171,3.171,0,0,1-3.095.118c-1.708-.836-11.953-5.576-15.4-2.962Z" transform="translate(-274.185 -230.514)"/><path class="y" d="M821.12,454.34s15.912-.181,17.752,4.314l.181,4.747a3.053,3.053,0,0,1-2.962.112c-1.631-.8-11.431-5.3-14.727-2.823Z" transform="translate(-274.322 -230.507)"/><path class="n" d="M831.7,402.07a53.472,53.472,0,0,0,6.872,10.81,43.374,43.374,0,0,0,10.455,9.354S832.062,404.342,831.7,402.07Z" transform="translate(-277.527 -214.67)"/><path class="n" d="M822.83,374.66s3.234,11.849,10.538,15.654Z" transform="translate(-274.84 -206.364)"/><path class="n" d="M816.723,376.628c-.084-.223-2.091,9.563,9.758,14.47C826.5,391.1,821.476,389.606,816.723,376.628Z" transform="translate(-272.935 -206.96)"/><path class="n" d="M920.488,361.092c-.181,0,5.91,3.562,7.59,5.262C928.079,366.354,923.994,360.709,920.488,361.092Z" transform="translate(-304.43 -202.247)"/><path class="t" d="M860.444,336.757a2.307,2.307,0,0,0,2.614,2.2c4.482.1,9.144.125,13.243-1.756a4.99,4.99,0,0,0,1.959-1.394,8.341,8.341,0,0,0,1.052-3.29c.495-2.209,1.652-4.182,2.467-6.329a20.958,20.958,0,0,0,.99-11.242,7.484,7.484,0,0,0-1.241-3.227c-1.255-1.652-3.443-2.251-5.06-3.541s-2.711-3.311-4.579-4.252a8.377,8.377,0,0,0-5.576-.279,29.106,29.106,0,0,0-10.176,4.28c-1.038.7-2.175,1.485-3.408,1.3a4.75,4.75,0,0,1-2.614-1.847,13.668,13.668,0,0,0-.85,6.433,2.791,2.791,0,0,1,0,.962,2.956,2.956,0,0,1-.648,1.038c-1.052,1.324-1.666,3.38-.523,4.628.495.551,1.234.829,1.722,1.394.864,1,.641,2.488.7,3.806a1.931,1.931,0,0,0,.376,1.289,1.9,1.9,0,0,0,1.826.362,4.928,4.928,0,0,1,1.917-.258,3.192,3.192,0,0,1,1.729,1.227C858.541,330.777,859.454,333.635,860.444,336.757Z" transform="translate(-282.308 -184.743)"/><g class="r" transform="translate(565.181 122.469)"><path d="M878.689,340.284a5,5,0,0,1-1.966,1.394c-4.07,1.882-8.726,1.868-13.208,1.756a2.307,2.307,0,0,1-2.621-2.189c-.983-3.129-1.9-5.987-4.071-8.531a3.206,3.206,0,0,0-1.721-1.227,5.1,5.1,0,0,0-1.924.258,1.9,1.9,0,0,1-1.826-.362,1.972,1.972,0,0,1-.376-1.289c0-1.317.2-2.788-.7-3.806-.481-.558-1.227-.836-1.722-1.394a2.9,2.9,0,0,1-.4-2.934c-.732,1.275-1.011,2.886-.056,3.938.495.544,1.241.822,1.722,1.394.864,1,.648,2.488.7,3.813a1.924,1.924,0,0,0,.376,1.282,1.882,1.882,0,0,0,1.826.362,5.073,5.073,0,0,1,1.924-.258,3.241,3.241,0,0,1,1.721,1.227c2.168,2.551,3.081,5.4,4.071,8.531a3.1,3.1,0,0,0,1.22,1.938,3.143,3.143,0,0,0,1.394.258c4.482.1,9.145.119,13.243-1.763a5.053,5.053,0,0,0,1.966-1.394,3.987,3.987,0,0,0,.586-1.213,2.023,2.023,0,0,1-.16.209Z" transform="translate(-847.494 -312.864)"/><path d="M850.08,316.061a2.093,2.093,0,0,0,.418-.76,2.629,2.629,0,0,0,0-.962,13.653,13.653,0,0,1,.488-5.332l-.091-.1a13.69,13.69,0,0,0-.85,6.433,4.139,4.139,0,0,1,.035.718Z" transform="translate(-848.243 -308.91)"/></g><path class="n" d="M862.82,363.724s18.415,1.729,19.955-1.094" transform="translate(-286.957 -202.719)"/><path class="n" d="M913.5,351.355s10.176-.376,12.546,3.353" transform="translate(-302.314 -199.3)"/><path class="d" d="M149.3,304.229V343.26c0,1.164-2.182,2.091-4.879,2.091H41.459c-2.69,0-4.879-.941-4.879-2.091V304.229c0-1.164,2.175-2.349,4.879-2.349H144.44C147.123,301.88,149.3,303.065,149.3,304.229Z" transform="translate(-36.6 -184.311)"/><g class="i" transform="translate(-0.02 117.569)"><path class="b" d="M149.3,304.229V343.26c0,1.164-2.182,2.091-4.879,2.091H41.459c-2.69,0-4.879-.941-4.879-2.091V304.229c0-1.164,2.175-2.349,4.879-2.349H144.44C147.123,301.88,149.3,303.065,149.3,304.229Z" transform="translate(-36.58 -301.88)"/></g><rect class="b" width="53.641" height="1.896" transform="translate(49.459 131.508)"/><path class="j" d="M63.1,315.92a12.72,12.72,0,0,0-7.012,23.328v-.85a2.886,2.886,0,0,1,2.544-2.858,5.046,5.046,0,0,0,8.852,0,2.886,2.886,0,0,1,2.544,2.858v.906A12.72,12.72,0,0,0,63.1,315.92Zm4.983,16.121a5.039,5.039,0,0,1-10.051,0,5.52,5.52,0,0,1,2.893-7.4,1.617,1.617,0,0,1-.272-.906,1.68,1.68,0,0,1,1.687-1.68h.118a1.68,1.68,0,0,0-1.561,1.68,1.61,1.61,0,0,0,.223.829h.049a1.687,1.687,0,0,1,0-.328,2.471,2.471,0,0,1,1.924-2.161h.118a1.687,1.687,0,0,0-1.282.753,1.68,1.68,0,0,1,2.607,1.394,1.709,1.709,0,0,1,0,.188,5.52,5.52,0,0,1,3.6,7.632Z" transform="translate(-40.784 -188.566)"/><rect class="j" width="53.641" height="1.896" transform="translate(49.459 136.123)"/><rect class="j" width="53.641" height="1.896" transform="translate(49.459 140.737)"/><rect class="j" width="53.641" height="1.896" transform="translate(49.459 145.351)"/><path class="z" d="M237.795,435.031a42.166,42.166,0,0,1-.7-6.419c0-2.579-3.485-4.879-3.485-4.879s-2.168-5.018-3.589-5.75-5.9-7.3-5.9-7.3a5.952,5.952,0,0,0-1.345-3.541,50.732,50.732,0,0,1-3.652-5.513h0c-.6-.739-.3-1.255-1.2-5.534q-.077-.335-.167-.648a.96.96,0,0,0-.091-.272,7.235,7.235,0,0,0,1.7-7.486,3.074,3.074,0,0,0-.857-1.324c-1.018-.829-2.642-.488-3.687-1.275l1.108-4.921c.272-1.2.411-2.732-.648-3.38a5.311,5.311,0,0,0-1.241-.418c-1.826-.579-2.851-2.5-3.318-4.342a14.888,14.888,0,0,1-.362-5.437c.2-1.742.7-3.443.906-5.193a14.337,14.337,0,0,0-2.209-9.242,7.207,7.207,0,0,0-2.92-2.753c-1.122-.5-2.426-.565-3.485-1.227-2.244-1.394-2.133-4.8-3.917-6.761s-4.956-1.938-7.562-1.269-5.193,1.819-7.869,1.519c-1.722-.188-3.339-.969-5.06-1.15a5.06,5.06,0,0,0-1.485.07l.035-.063a3.208,3.208,0,0,0-2.753,2.154,3.325,3.325,0,0,0-.084.878c0,.7.167,1.436.181,2.091a2.035,2.035,0,0,1-.488,1.485c-.342.369-.85.565-1.185.941a1.533,1.533,0,0,0-.439,1.108c0,1.073,1.338,2.014,2.237,2.446h0c-.244.244-.481.495-.7.753a15.836,15.836,0,0,0-3.924,10.546,16.066,16.066,0,0,0,9.758,14.713c-.042.132-.077.258-.125.39a20.714,20.714,0,0,1-.878,2.279,4.517,4.517,0,0,0-3.785.418c-1.722,1.178-5.081,1.108-5.98.885s-10.239-1.394-10.985-1.108-2.244-1.032-3.213.739-1.394,2.732-2.391,3.171-2.69,1.847-2.467,2.14-2.467,2.091-2.467,2.091-2.314,2.432-3.659,2.732a20.37,20.37,0,0,0-4.182,2.14l-3.29,2.579s-2.467.369-1.722-1.324-1.345-3.84-1.345-3.84-4.182-8.482-4.182-10.246-3.436-9.221-3.436-9.221l-.425-.042c-.063-.181-.125-.362-.2-.551a52.021,52.021,0,0,0-2.091-5.234c-1.185-2.432-1.952-2.711-1.952-2.711s-14.5-10.887-23.914-7.569,17.188,13.2,19.579,14.24c.836.355,1.436,1.526,1.861,2.886a12.386,12.386,0,0,0-5.123,4.663s5.75,12.755,5.9,15.926,3.966,12.023,3.966,12.023,1.394,6.566,9.117,6.2c0,0,10.608,1.945,12.922,0s4.412-3.485,5.534-3.7a4.356,4.356,0,0,0,2.091-1.478s-3.485,22.123-5.227,24.046-16.965,26.771-11.514,31.19a109.288,109.288,0,0,0,13.675,9.061c.467.23,1.854-2.091,3.84-3.729v1.276c.035,8.838,1.185,22.3,2.823,25.315,2.391,4.426,1.394,12.985,1.394,12.985a10.315,10.315,0,0,0,4.043.969c.07.286.153.586.237.9,1.317,4.977,3.45,12.671,4.537,14.72,1.652,3.1,2.844,12.908,2.844,12.908s.969,9.66.6,10.992c-.146.509.488,4.517,1.478,9.6h0c-.606,6.914-1.742,20.248-1.938,25.092h0v.808h0a5.477,5.477,0,0,0,0,.906,2.837,2.837,0,0,1-.1,1.394,22.394,22.394,0,0,1-1.624,3.861,18.493,18.493,0,0,0-.7,1.875,3.377,3.377,0,0,0-1.742,2.474c-.746,2.879-1.868,10.845-1.868,10.845s-.446,4.879-1.345,5.973-1.791,8.036,4.558,8.922,9.117-3.373,9.117-3.373l-.223-19.307h0a2.788,2.788,0,0,0,.328-.53v-.042c.042-.1.091-.188.132-.3s0-.091.056-.139.063-.153.091-.237a.391.391,0,0,1,0-.084,12.685,12.685,0,0,0,.537-5.75s0-.063,0-.1v-.3a.891.891,0,0,0,0-.132,1.343,1.343,0,0,1,0-.167v-.118a1.265,1.265,0,0,1,.042-.39.258.258,0,0,1,0-.077v-.23a.537.537,0,0,0,0-.1,1.676,1.676,0,0,1,.049-.244v-.056c.056-.286.132-.572.209-.871v-.063l.084-.293h0c.1-.314.2-.62.307-.927V584.6l.1-.286v-.035c.1-.293.216-.578.328-.85v-.077l.1-.244v-.07l.23-.544h0l1.763,5.443s.969,4.057.446,5.011.6,4.949,1.345,5.018l-.7,5.018a76.728,76.728,0,0,0-.7,8.364c-.049.314-.1.585-.132.795-.481,2.565.7,6.552.7,6.552,5.9,6.97,12.929.544,12.929.544s.822-3.694,0-4.426-.446-3.394-.446-3.394.369-6.566.446-11.361-3.924-9.012-3.924-9.012l-.223.2c-.7-1.875-1.554-4.07-1.394-5.053.3-1.694-.822-19.613-.822-19.613a106.972,106.972,0,0,0,.258-14.414h0c.1-.815.188-1.617.279-2.391.453-3.854.815-7.151.962-8.873h0v-.2c.035-.467.056-.795.049-.955,0-.572,0-1.289.056-2.042.146-2.091.467-4.377.467-4.377l1.568-9.514a29.519,29.519,0,0,1,2.913-7.228l.2-.328h0c.07-.112.139-.237.209-.369v-.056l.209-.4v-.056c.244-.474.5-1.025.767-1.624l.063-.132.2-.46.077-.181.2-.46c0-.063.049-.118.077-.181.077-.188.153-.376.237-.565l.112-.272c.063-.139.118-.279.174-.425l.153-.362.1-.272.167-.411c0-.063.056-.125.077-.188.425-1.066.843-2.091,1.206-3.081h0c.118-.3.23-.585.335-.864,3.826.237,6.426.453,6.426.453s1.2-8.629.822-14.309a52.723,52.723,0,0,1,.941-11.452c.056-.3.1-.565.146-.8l.1.084c1.875,1.471,3.213-3.394,3.213-3.394s-.5-4.551-1.178-10.051a4.954,4.954,0,0,0-.07-.551,28.937,28.937,0,0,0,3.269.5s.6-.056,1.394-.16a39.6,39.6,0,0,0,7.1,3.178l3.959-7.374a30.068,30.068,0,0,1,2.614-4.349c1.2-1.478,5.457-6.2,5.381-7.081a24.19,24.19,0,0,1,2.913-8.259A19.77,19.77,0,0,0,237.795,435.031Zm-16.588,5.576c-1.568.662-3.067,4.349-3.136,5.457s-1.722,5.973-3.443,6.566c-1.575.544-4.6,3.318-5.081,3.764-.495.049-1.052.112-1.638.209-.655-4.656-1.3-8.5-1.722-9.284-1.192-2.216,1.317-9.291,1.317-9.291s.251-7.151,1.819-8.852,1.2-5.973,1.2-5.973.369-1.77.523-2.579,2.223,0,2.237,0h0s4.036,2.209,4.635,5.527,5,9.061,5,9.061-.7,1.986,0,3.025-.139,1.736-1.708,2.4Z" transform="translate(-54.213 -195.781)"/><path class="aa" d="M121.15,391.55a12.051,12.051,0,0,1,12.072-5.667V394.5h-5.207l-4.126-1.066Z" transform="translate(-62.225 -209.725)"/><path class="n" d="M121.15,391.55a12.051,12.051,0,0,1,12.072-5.667V394.5h-5.207l-4.126-1.066Z" transform="translate(-62.225 -209.725)"/><path class="ab" d="M125.752,380.971l-6.405,4.5s-.056-.906-.216-2.133c-.321-2.321-1.039-5.806-2.586-6.482-2.356-1.032-28.577-10.894-19.279-14.2s23.551,7.548,23.551,7.548.739.251,1.91,2.683c.62,1.275,1.394,3.45,2.049,5.22C125.341,379.7,125.752,380.971,125.752,380.971Z" transform="translate(-54.386 -202.534)"/><path class="aa" d="M175.119,265.789l.725-.349,2.049,2.335-1.673,3.569L173.37,270.2l.662-2.851Z" transform="translate(-52.538 -80.43)"/><path class="c" d="M195.793,699.068s-1.84-.216-2.579,2.649-1.84,10.824-1.84,10.824-.439,4.879-1.324,5.959-1.763,8.022,4.489,8.908,8.984-3.367,8.984-3.367l-.223-19.307Z" transform="translate(-82.914 -304.661)"/><path class="c" d="M225.669,700.32s3.938,4.182,3.868,8.991-.446,11.34-.446,11.34-.362,2.649.446,3.387,0,4.412,0,4.412-6.921,6.426-12.734-.537c0,0-1.136-3.98-.7-6.545s1.763-14.114,1.763-14.114Z" transform="translate(-90.967 -305.042)"/><path class="ab" d="M228.043,572.233s-3.98,11.152-5.674,13.689a29.021,29.021,0,0,0-2.865,7.221l-1.547,9.5a52.1,52.1,0,0,0-.516,6.405c.07,2.133-3.826,33.267-3.826,33.267l-6.182,7.876s-2.725,5.52-2.286,7.806-.293,5.959-1.178,7.061c0,0-.146,7.214-.369,8.838s.815,6.182,0,6.97-11.626.439-11.926-.885,1.331-7.73,1.331-7.73l.955-6.182s1.91-3.387,1.471-4.489.809-3.68.885-3.9,2.091-3.826,1.694-5.22,2.279-31.065,2.279-31.065l7.583-53.222Z" transform="translate(-83.584 -264.999)"/><path class="n" d="M228.046,572.24s-.6,1.673-1.436,3.875c-1.31,3.485-3.2,8.238-4.238,9.814a29.8,29.8,0,0,0-2.872,7.214l-1.54,9.5a52.081,52.081,0,0,0-.516,6.4c0,.843-.565,6.224-1.289,12.413-1.115,9.472-2.537,20.861-2.537,20.861l-6.189,7.876s-.314.634-.7,1.554c-.774,1.805-1.868,4.74-1.575,6.273.439,2.286-.293,5.966-1.178,7.068,0,0-.146,7.221-.369,8.831s.815,6.189,0,6.97-11.626.446-11.926-.885,1.324-7.723,1.324-7.723l.962-6.189s1.91-3.387,1.471-4.489.809-3.68.885-3.9,2.091-3.826,1.694-5.227c-.286-1.066,1.185-18.5,1.9-26.765.23-2.607.383-4.293.383-4.293l6.524-45.785.523-3.694.537-3.743Z" transform="translate(-83.587 -265.005)"/><path class="ab" d="M220.488,684.56c.07.808-10.378,1.986-11.849,1.1s0-11.849,0-11.849l.7-5c-.739-.077-1.84-4.049-1.324-5.011s-.446-5-.446-5l-1.736-5.437-1.059-3.318c-1.715-3.8-4.182-14.637-5.757-22.722-.976-5.081-1.6-9.061-1.457-9.6.369-1.324-.592-10.964-.592-10.964s-1.171-9.758-2.788-12.88c-1.073-2.049-3.171-9.758-4.475-14.7-.662-2.544-1.122-4.37-1.122-4.37s11.152-.934,17.871-1.262c3.109-.146,5.283-.167,5.025.091s-.314,1.6-.3,3.548c0,5.053.732,13.94,1.478,16.324,1.032,3.311,2.091,13.243,1.617,14.2s-.293,7.36-.293,7.36a33.058,33.058,0,0,1,1.289,7.994,107.886,107.886,0,0,1-.258,14.386s1.108,17.885.808,19.579,2.356,6.97,2.356,8.022.669,8.022.669,8.022S220.419,683.752,220.488,684.56Z" transform="translate(-82.657 -266.595)"/><path class="ab" d="M230.7,410.818l-1.269,1.394-.822.885-4.823,5.123-12.441,1.394-6.607-1.77-1.638-.432s0-3.325.3-7.311c.418-5.109,1.429-11.319,3.826-13.006a9.507,9.507,0,0,0,2.788-3.548,19.857,19.857,0,0,0,1.206-2.976c.049-.132.084-.258.125-.383a32.612,32.612,0,0,0,1.171-5.464s1.589-.878,3.792-1.9c5.764-2.69,15.717-6.4,12.253,1.9a31.3,31.3,0,0,0-1.3,3.736c-.056.181-.1.369-.146.551-1.157,4.628-.39,7.43.474,8.977h0a6.275,6.275,0,0,0,.5.76,3.833,3.833,0,0,0,.836.85l1.436,9.1.118.753Z" transform="translate(-87.057 -207.868)"/><path class="n" d="M232.1,385.411c-.655,1.575.321-1.289,0,0-2.621,1.868-8.8,7.179-12.281,7.179-2.342,0-3.046-.425-5.06-1.331a32.687,32.687,0,0,0,1.3-5.848S236.883,373.924,232.1,385.411Z" transform="translate(-90.59 -208.075)"/><path class="ab" d="M233.286,366.787a16.031,16.031,0,0,1-14.365,15.954,14.9,14.9,0,0,1-1.68.091A16.031,16.031,0,1,1,233.272,366.8Z" transform="translate(-86.484 -199.125)"/><path class="n" d="M233.252,458.539l-2.279,5.966s-1.868.084-4.767.174c-9.758.314-31.365.7-32.333-1.8a6.043,6.043,0,0,1-.335-1.979c-.132-3.833,1.659-9.723,1.659-9.723s1.032-11.779,1.032-12.288-.885-8.8-.885-8.8l1.763-6.621,4.935-3.485s2.209,3.387,3.534,3.68a9.261,9.261,0,0,1,3.095,1.917s4.335,2.649,5.736,1.171S226.7,418.81,226.7,418.81l5.743,6.329Z" transform="translate(-84.157 -219.742)"/><path class="d" d="M233.252,459.809l-2.279,5.966s-1.868.084-4.767.167h-.286l-4.231.112c-7.778.174-18.505.223-24.1-.592-2.091-.307-3.485-.7-3.715-1.324a4.88,4.88,0,0,1-.265-1.094,8.765,8.765,0,0,1-.07-.885c-.132-3.833,1.659-9.758,1.659-9.758s1.032-11.779,1.032-12.295-.885-8.761-.885-8.761l1.763-6.621,3.394-2.377,1.54-1.08a22.245,22.245,0,0,0,1.694,2.223,4.433,4.433,0,0,0,1.84,1.45,9.378,9.378,0,0,1,3.095,1.917s4.335,2.656,5.736,1.178c1.073-1.129,7.667-5.179,10.748-7.026l1.547-.927.774.857,4.97,5.478Z" transform="translate(-84.157 -220.127)"/><path class="n" d="M136.121,387.962l-6.405,4.5s-.056-.906-.216-2.133a12.961,12.961,0,0,0,5.646-5.234C135.71,386.693,136.121,387.962,136.121,387.962Z" transform="translate(-64.755 -209.525)"/><path class="e" d="M156.111,403.455l-1.394-.362s-2.286,2.426-3.61,2.718a19.634,19.634,0,0,0-4.119,2.14l-3.241,2.572s-2.433.369-1.694-1.324-1.324-3.826-1.324-3.826-4.119-8.468-4.119-10.232-3.387-9.2-3.387-9.2-4.273,8.315-12.072,5.667c0,0,5.667,12.734,5.813,15.9s3.9,12,3.9,12,1.394,6.552,8.977,6.182c0,0,10.455,1.945,12.734,0s4.342-3.485,5.45-3.694a4.315,4.315,0,0,0,2.056-1.471v-8.754Z" transform="translate(-62.225 -209.782)"/><path class="n" d="M152.51,423s1.84,6.844.7,7.583Z" transform="translate(-71.728 -221.012)"/><path class="n" d="M226.208,484.241c-9.758.314-31.365.7-32.333-1.791a6.043,6.043,0,0,1-.335-1.979l31.985,1.687Z" transform="translate(-84.16 -238.425)"/><path class="n" d="M227.089,572.24s-.6,1.673-1.429,3.875c-4.063-.251-9.444-.509-14.553-.544-1.812,0-3.583,0-5.248.056a39.313,39.313,0,0,0-8.58.955,22.641,22.641,0,0,1-7.667.983c-.662-2.544-1.122-4.37-1.122-4.37s11.152-.934,17.871-1.262l.537-3.743Z" transform="translate(-82.63 -265.005)"/><path class="l" d="M232.549,519.09l-1.248,2.649s-.174.788-.4,2.042a53.444,53.444,0,0,0-.934,11.431,89.469,89.469,0,0,1-.809,14.274s-27.085-2.279-35.031,0-11.849,0-11.849,0,.955-8.538-1.394-12.95c-1.617-3.025-2.746-16.449-2.788-25.266,0-4.077.2-7.165.7-7.785,1.617-1.993,8.538-21.865,8.538-21.865l1.575.084,4.182.223,23.97,1.262,3.757.2.4,1.22Z" transform="translate(-79.482 -238.774)"/><path class="aa" d="M268.521,518.155l.223,2.356s-11.849-3.861-11.263-8.608,0-4.182,0-4.182l9.535.809Z" transform="translate(-103.528 -246.676)"/><path class="n" d="M268.521,518.155l.223,2.356s-11.849-3.861-11.263-8.608,0-4.182,0-4.182l9.535.809Z" transform="translate(-103.528 -246.676)"/><path class="n" d="M163.076,424.909a10.574,10.574,0,0,0,4.182,2.175,2.718,2.718,0,0,1-1.234-.579c-.85-.606-1.659-1.262-2.474-1.9a7.268,7.268,0,0,0-2.3-1.582,12.69,12.69,0,0,0,1.826,1.889Z" transform="translate(-74.376 -221.018)"/><path class="n" d="M162.7,428.9a5.123,5.123,0,0,1,.913,1.457,5.854,5.854,0,0,1,.265,1.882,5.939,5.939,0,0,1-.328,2.669l-1.931-4.579c-.328-.781-.7-1.561-1.059-2.314-.174-.321-1.269-1.645-1.143-1.924C159.778,425.292,162.343,428.464,162.7,428.9Z" transform="translate(-73.817 -221.91)"/><path class="n" d="M236.967,465.92a6.161,6.161,0,0,0,3.485-1.61c-1.959.244-3.806,1.011-5.736,1.394a8.524,8.524,0,0,1-5.346-.488A12.855,12.855,0,0,0,236.967,465.92Z" transform="translate(-95.017 -233.529)"/><path class="n" d="M228.168,444.757a1.317,1.317,0,0,1-1-.251q-2.2-1.255-4.349-2.635a26.378,26.378,0,0,1-4.252-2.941C221.49,441.572,224.209,443.8,228.168,444.757Z" transform="translate(-91.744 -225.839)"/><path class="n" d="M236.458,469.059a9.352,9.352,0,0,0,2.293-.181,3.1,3.1,0,0,0,1.889-1.241,1.066,1.066,0,0,0-.8.125,13.535,13.535,0,0,1-7.388.885A10.752,10.752,0,0,0,236.458,469.059Z" transform="translate(-95.95 -234.528)"/><path class="n" d="M210.033,518.453a23.628,23.628,0,0,1-4.7.927,28.9,28.9,0,0,1-3.722-.07l-6.029-.383-3.018-.2c-.355,0-1.812,0-1.094-.7.362-.342,2.377-.125,2.893-.139,1,0,2-.049,3-.056,1.993,0,3.994,0,5.987.125Q206.7,518.1,210.033,518.453Z" transform="translate(-83.472 -249.749)"/><path class="n" d="M202.183,522.761c-1.025-.042-2.342.572-3.394.7a22.342,22.342,0,0,1-3.548.146,19.959,19.959,0,0,1-6.851-1.394C193,522.44,197.59,522.579,202.183,522.761Z" transform="translate(-82.6 -251.073)"/><path class="n" d="M188.759,527.448a10.8,10.8,0,0,1,1.317.356c2.537.732,5.241.091,7.8-.544a4.618,4.618,0,0,1-2.962,1.645,13.939,13.939,0,0,1-5.778.209c-.606-.118-2.091-.335-2.426-.962C186.25,527.225,188.194,527.358,188.759,527.448Z" transform="translate(-82.069 -252.603)"/><path class="n" d="M208.485,533.757a21.361,21.361,0,0,1,2.251.585c2.858.7,5.827-.265,8.7-.92a40.233,40.233,0,0,1,10.532-.976,10.322,10.322,0,0,0-2.258.746c-.815.244-1.638.467-2.46.7a49.5,49.5,0,0,1-4.921.962,50.4,50.4,0,0,1-10.092.439c-1.54-.084-4.182.077-5.534-.7A6.12,6.12,0,0,1,208.485,533.757Z" transform="translate(-87.542 -254.165)"/><path class="n" d="M201.506,402.575s.146,6.782-.962,9.869c-.342.962-.885,2.739-1.471,4.733-.648,2.209-1.352,4.684-1.9,6.6s-.9,3.241-.9,3.241-2.488,20.255-3.136,29.9v.5c-.035.544-.1,1.108-.181,1.694-1.436,9.584-9.7,24.36-12.476,25.545a8.365,8.365,0,0,0-2.335,1.6c0-4.077.2-7.165.7-7.785,1.617-1.993,8.538-21.865,8.538-21.865l1.575.084a8.769,8.769,0,0,1-.07-.885c-.132-3.833,1.659-9.758,1.659-9.758s1.032-11.779,1.032-12.295S190.7,425,190.7,425l1.763-6.621L195.854,416c.418-5.109,1.429-11.319,3.826-13.006a9.507,9.507,0,0,0,2.788-3.548c.481.063-.39-.355-.39-.355Z" transform="translate(-79.497 -213.767)"/><path class="e" d="M194.786,398.539a4.4,4.4,0,0,0-3.729.425c-1.694,1.171-5,1.1-5.89.878s-10.085-1.394-10.817-1.1-2.209-1.032-3.164.732-1.394,2.725-2.356,3.171-2.656,1.84-2.433,2.133-2.426,2.091-2.426,2.091l5.367,17.425s-3.485,22.081-5.151,23.991-16.728,26.723-11.333,31.142a108.691,108.691,0,0,0,13.466,9.061c.592.293,2.725-3.68,5.674-4.935s12.072-17.85,12.671-27.245,3.164-30.4,3.164-30.4,3.164-11.486,4.273-14.574.927-9.876.927-9.876Z" transform="translate(-71.48 -213.529)"/><path class="n" d="M249.4,496.374l-1.248,2.649s-.174.788-.4,2.042a1.157,1.157,0,0,1-.634-.272c-1.84-1.478-12.664-12.588-13.173-22.457-.383-7.277-.2-13.543-.084-16.338.042-.878.07-1.394.077-1.526,0,0,8.364-10.162,7.43-13.766s-3.164-22.9-3.164-22.9l-.328-2.53-.558-4.273-1.317-10.357,1.394.321a3.834,3.834,0,0,0,.836.85l1.436,9.1,4.97,5.478.809,33.344-2.279,5.966s-1.868.084-4.767.167h-.286Z" transform="translate(-96.334 -216.057)"/><path class="e" d="M254.426,441.114s-2.091-.809-2.209,0-.516,2.572-.516,2.572.362,4.273-1.178,5.966-1.791,8.831-1.791,8.831-2.474,7.068-1.3,9.277c.425.8,1.087,4.823,1.749,9.632.418,3,.836,6.315,1.213,9.333.7,5.5,1.164,10.037,1.164,10.037s-1.324,4.879-3.164,3.387-12.664-12.6-13.18-22.45c-.362-6.935-.216-12.95-.1-15.919.056-1.262.1-1.972.1-1.972s8.364-10.155,7.437-13.759-3.164-22.9-3.164-22.9l-.39-2.976-.411-3.206-.091-.7L237.259,406h0c.237.049,8.5,1.917,9.584,3s7.8,2.649,7.8,2.649a5.9,5.9,0,0,1,4.182,4.293c.063.2.112.418.16.641.885,4.273.592,4.781,1.185,5.52S254.426,441.114,254.426,441.114Z" transform="translate(-96.717 -215.861)"/><path class="n" d="M253.88,517.763c-3.025-.586-7.479-1.986-7.381-5.053.1-2.879,3.555-3.91,6.168-4.28C253.121,511.434,253.5,514.745,253.88,517.763Z" transform="translate(-100.207 -246.898)"/><path class="ab" d="M263.416,515.97c-.118.258-.62.481-1.282.7a33.646,33.646,0,0,1-4.879.795s-10.232-.808-10.085-5.443c.1-3.332,4.726-4.182,7.325-4.412,1.018-.091,1.729-.077,1.729-.077S263.862,515.015,263.416,515.97Z" transform="translate(-100.41 -246.625)"/><path class="n" d="M266.353,515.97c-.118.258-.62.481-1.282.7-2.669-3.569-6.391-8.148-8.211-8.552,0,0,.209-.2.551-.509,1.018-.091,1.729-.077,1.729-.077S266.8,515.015,266.353,515.97Z" transform="translate(-103.347 -246.625)"/><path class="e" d="M263.974,428.5l3.018.439a51.892,51.892,0,0,0,3.61,5.52,6,6,0,0,1,1.324,3.534s4.419,6.552,5.813,7.291,3.534,5.743,3.534,5.743,3.485,2.279,3.485,4.879a42.52,42.52,0,0,0,.662,6.4c.07.369-.516,4.935-1.993,7.214a24.707,24.707,0,0,0-2.865,8.245c.077.885-4.126,5.576-5.3,7.068a29.745,29.745,0,0,0-2.572,4.342l-3.9,7.36s-8.245-12.142-11.263-12.8c0,0,3.387-3.241,5.081-3.826s3.311-5.451,3.387-6.552,1.54-4.788,3.088-5.45,2.356-1.324,1.694-2.356,0-3.018,0-3.018-4.342-5.743-4.935-9.061-4.558-5.52-4.558-5.52l-2.286-5.576Z" transform="translate(-103.547 -222.678)"/><path class="n" d="M281.287,466.941a9.542,9.542,0,0,1,5.945-2.251,7.251,7.251,0,0,0-3.889,1.519,8.881,8.881,0,0,0-1.073,1.394c-.355.5-3.192,4.112-3.645,3.548C277.948,470.287,280.715,467.429,281.287,466.941Z" transform="translate(-109.909 -233.644)"/><path class="n" d="M272.93,457.817a2.537,2.537,0,0,0,2.091-1.485,8.364,8.364,0,0,0,.655-2.614,38.742,38.742,0,0,1,.913-4.468,2.844,2.844,0,0,0,.146-.934,2.641,2.641,0,0,0-.272-.9,6.411,6.411,0,0,0-.641-1.338c-.551.62-.7,2.007-.927,2.788q-.4,1.505-.774,3.011C274,452.409,272.979,457.817,272.93,457.817Z" transform="translate(-108.216 -228.005)"/><path class="n" d="M250.291,399.286a6.565,6.565,0,0,1-1.018,1.046c-1.178.955-2.788,1.763-2.955,3.269a3.6,3.6,0,0,1-.174,1.457c-.383.655-1.331.606-2.091.474a3.68,3.68,0,0,1-1.763-.648c-.788-.7-.864-1.882-1.464-2.725a3.722,3.722,0,0,0-2.983-1.338c-1.129-.035-2.251.216-3.373.272a9.346,9.346,0,0,1-2.161-.146c-.237-.042-.467-.091-.7-.146a9.141,9.141,0,0,1-1.471-.5,7.426,7.426,0,0,1-.7-.335,9.474,9.474,0,0,1-2.091-1.443,5.167,5.167,0,0,1-1.924-3.91,24.014,24.014,0,0,1,.627-2.676c.453-2.6-1.275-5.06-3.15-6.921-.746-.732-1.54-1.457-2.286-2.209a11.026,11.026,0,0,1-2.7-3.833,11.681,11.681,0,0,1-.481-4.8,32.612,32.612,0,0,0,.146-4.942c-.558-5.855-5.576-10.336-10.552-12.783l-.216-.112a16.031,16.031,0,1,1,21.607,23.475c-.056.181-.1.369-.146.551-1.157,4.628-.39,7.43.474,8.977h0c.237.049,8.5,1.917,9.584,3s7.8,2.649,7.8,2.649a5.9,5.9,0,0,1,4.154,4.293Z" transform="translate(-88.184 -199.186)"/><path class="c" d="M205.04,348.9c.328-.376.829-.572,1.164-.941,1.039-1.129,0-2.976.383-4.468.411-1.659,2.439-2.384,4.14-2.2s3.29.955,4.983,1.143c2.635.3,5.186-.843,7.758-1.512s5.674-.7,7.451,1.262,1.645,5.325,3.847,6.754c1.018.655,2.3.7,3.4,1.22a7.054,7.054,0,0,1,2.879,2.753,14.421,14.421,0,0,1,2.168,9.221c-.181,1.742-.7,3.443-.892,5.186a15.124,15.124,0,0,0,.355,5.423c.467,1.833,1.471,3.757,3.276,4.335a5.144,5.144,0,0,1,1.22.418c1.039.641.906,2.175.641,3.366l-1.115,4.914c1.032.788,2.628.446,3.631,1.275a2.948,2.948,0,0,1,.843,1.324,7.242,7.242,0,0,1-2.161,7.9c-1.178.962-2.788,1.763-2.955,3.276a3.485,3.485,0,0,1-.174,1.45c-.383.655-1.331.606-2.091.474a3.61,3.61,0,0,1-1.756-.648c-.795-.7-.864-1.882-1.464-2.725a3.722,3.722,0,0,0-2.983-1.338c-1.136-.035-2.251.216-3.38.272a9.946,9.946,0,0,1-7.116-2.572,5.158,5.158,0,0,1-1.931-3.9,25.792,25.792,0,0,1,.627-2.683c.453-2.593-1.276-5.06-3.143-6.914s-4.07-3.576-4.983-6.05c-1.143-3.067,0-6.482-.342-9.758-.558-5.855-5.576-10.336-10.546-12.776C205.64,351.829,203.744,350.372,205.04,348.9Z" transform="translate(-87.513 -196.017)"/><path class="n" d="M244.4,399.8c-.788-.7-.857-1.875-1.457-2.725a3.75,3.75,0,0,0-2.99-1.331c-1.129-.035-2.244.216-3.373.272a9.981,9.981,0,0,1-7.116-2.537,5.185,5.185,0,0,1-1.931-3.91,25.67,25.67,0,0,1,.627-2.676c.453-2.6-1.276-5.06-3.15-6.921s-4.063-3.576-4.983-6.05c-1.136-3.06,0-6.482-.335-9.758-.558-5.855-5.576-10.343-10.552-12.783-1.164-.572-3.06-2.021-1.763-3.485.328-.376.822-.565,1.164-.934,1.039-1.129,0-2.983.383-4.475a2.363,2.363,0,0,1,.376-.815,3.185,3.185,0,0,0-2.711,2.14c-.369,1.492.655,3.346-.383,4.475-.335.369-.836.558-1.164.934-1.3,1.478.6,2.927,1.77,3.485,5,2.446,9.988,6.928,10.546,12.783.307,3.248-.8,6.67.342,9.758.913,2.474,3.109,4.182,4.983,6.05s3.6,4.321,3.143,6.921a26.094,26.094,0,0,0-.627,2.676,5.185,5.185,0,0,0,1.931,3.91,9.946,9.946,0,0,0,7.116,2.572c1.129-.056,2.244-.307,3.38-.272a3.736,3.736,0,0,1,2.983,1.331c.6.85.7,2.056,1.464,2.725a3.611,3.611,0,0,0,1.756.648c.753.139,1.7.188,2.091-.474a1.645,1.645,0,0,0,.167-.864,3.387,3.387,0,0,1-1.687-.669Z" transform="translate(-87.513 -196.368)"/></g></svg>